<?xml version="1.0" encoding="UTF-8"?>
<svg version="1.1" xmlns="http://www.w3.org/2000/svg" width="500" height="500">
<path d="M0 0 C1.86332726 -0.01925285 1.86332726 -0.01925285 3.76429749 -0.03889465 C5.11426387 -0.04706677 6.46423484 -0.05450959 7.81420898 -0.0612793 C8.50072981 -0.06535482 9.18725063 -0.06943035 9.89457512 -0.07362938 C13.53290372 -0.09444505 17.17119518 -0.1087626 20.80957031 -0.11816406 C24.53585116 -0.12918168 28.26152716 -0.16353958 31.98759556 -0.20333576 C34.87984697 -0.22970259 37.77195902 -0.23787376 40.66431999 -0.24144554 C42.03603102 -0.24626486 43.40773783 -0.2577429 44.7793293 -0.27648354 C54.58288074 -0.40204256 63.10141135 0.73812473 71.89698792 5.28900146 C76.5338398 7.51371173 82.71096995 6.59194897 87.74780273 6.61450195 C89.6446582 6.66380859 89.6446582 6.66380859 91.57983398 6.71411133 C100.4299916 6.76424095 106.84510923 5.06459127 114.74780273 1.17700195 C118.01617402 0.08754486 120.44002152 0.03694085 123.88061523 0.01586914 C125.14623291 0.0062616 126.41185059 -0.00334595 127.71582031 -0.01324463 C129.10147928 -0.01809568 130.48714035 -0.02237375 131.87280273 -0.02612305 C133.29947917 -0.03188032 134.7261556 -0.03763798 136.15283203 -0.043396 C139.14884805 -0.05390401 142.14483729 -0.05974653 145.14086914 -0.06323242 C148.9523884 -0.06868654 152.76354488 -0.09264838 156.57495117 -0.12120438 C159.52635674 -0.13997834 162.47767799 -0.14504434 165.42913818 -0.1465683 C166.83235638 -0.14956727 168.23557409 -0.15750087 169.63873291 -0.17075348 C180.37417616 -0.26482703 191.19114414 -0.19602502 199.40405273 7.55200195 C200.74780273 9.17700195 200.74780273 9.17700195 202.24780273 12.48950195 C202.74280273 13.37637695 203.23780273 14.26325195 203.74780273 15.17700195 C207.267244 16.00132838 207.267244 16.00132838 210.74780273 16.17700195 C213.63012023 19.05931945 213.67966122 21.15665271 213.74780273 25.17700195 C211.62280273 28.11450195 211.62280273 28.11450195 208.74780273 30.17700195 C206.06811523 30.3059082 206.06811523 30.3059082 203.74780273 30.17700195 C203.75827637 30.80678955 203.76875 31.43657715 203.77954102 32.08544922 C203.82140503 34.97009202 203.84722475 37.85467061 203.87280273 40.73950195 C203.88956055 41.73014648 203.90631836 42.72079102 203.92358398 43.74145508 C203.96054632 49.30428686 203.61862825 53.9254327 201.74780273 59.17700195 C202.96790039 59.0687207 202.96790039 59.0687207 204.21264648 58.95825195 C211.14601705 58.39671913 218.04289659 58.04900281 224.99780273 57.98950195 C226.1056311 57.97016602 226.1056311 57.97016602 227.23583984 57.95043945 C229.07470904 57.94700272 230.91308697 58.05343091 232.74780273 58.17700195 C233.40780273 58.83700195 234.06780273 59.49700195 234.74780273 60.17700195 C234.37280273 62.80200195 234.37280273 62.80200195 233.74780273 65.17700195 C223.683176 68.20244085 213.32079974 70.66876926 202.74780273 70.17700195 C202.08780273 73.14700195 201.42780273 76.11700195 200.74780273 79.17700195 C202.25342773 79.25950195 203.75905273 79.34200195 205.31030273 79.42700195 C214.33511715 80.23467017 223.40705515 82.64090555 231.74780273 86.17700195 C231.74780273 88.15700195 231.74780273 90.13700195 231.74780273 92.17700195 C220.2685991 92.83088064 209.06515917 90.88094991 197.74780273 89.17700195 C196.96469727 90.48411133 196.96469727 90.48411133 196.16577148 91.81762695 C180.28418693 117.75669316 155.84962606 133.72012882 126.49780273 140.92700195 C88.10898732 149.83993177 47.67396087 145.2946072 13.49389648 125.27075195 C-1.10664667 115.98122776 -11.84661405 104.26202183 -20.25219727 89.17700195 C-21.15760254 89.31332031 -21.15760254 89.31332031 -22.08129883 89.45239258 C-44.24128523 92.74724378 -44.24128523 92.74724378 -54.25219727 92.17700195 C-54.93969727 90.36450195 -54.93969727 90.36450195 -55.25219727 88.17700195 C-51.40311274 82.28264742 -40.25264919 81.30656308 -33.81469727 79.92700195 C-30.25460163 79.2649287 -26.8836132 78.9858748 -23.25219727 79.17700195 C-23.91219727 76.53700195 -24.57219727 73.89700195 -25.25219727 71.17700195 C-25.97286377 71.07154053 -26.69353027 70.9660791 -27.43603516 70.85742188 C-30.73046589 70.36962274 -34.02250782 69.86719607 -37.31469727 69.36450195 C-38.44842773 69.19885742 -39.5821582 69.03321289 -40.75024414 68.86254883 C-46.70122081 67.94301016 -51.86692657 66.9048096 -57.25219727 64.17700195 C-57.25219727 62.52700195 -57.25219727 60.87700195 -57.25219727 59.17700195 C-54.03248367 57.56714515 -50.5370419 57.98660395 -47.00219727 57.98950195 C-46.20185059 57.98885742 -45.40150391 57.98821289 -44.5769043 57.98754883 C-37.33646331 58.05084694 -30.38327983 58.8929485 -23.25219727 60.17700195 C-23.4571582 59.67555664 -23.66211914 59.17411133 -23.87329102 58.6574707 C-27.04806341 49.74076545 -26.97346952 40.53840964 -27.25219727 31.17700195 C-27.8180957 30.98364258 -28.38399414 30.7902832 -28.96704102 30.59106445 C-29.70051758 30.33067383 -30.43399414 30.0702832 -31.18969727 29.80200195 C-31.9205957 29.54676758 -32.65149414 29.2915332 -33.40454102 29.02856445 C-35.25219727 28.17700195 -35.25219727 28.17700195 -36.25219727 26.17700195 C-36.70509926 19.94959948 -36.70509926 19.94959948 -35.18969727 17.36450195 C-33.25219727 16.17700195 -33.25219727 16.17700195 -29.87719727 15.48950195 C-25.91458182 14.05476188 -25.75778886 13.819523 -23.93969727 10.36450195 C-21.06707207 5.11551905 -16.73712671 3.17385908 -11.25219727 1.17700195 C-7.45671627 0.26255973 -3.89946024 0.03522865 0 0 Z M-9.25219727 19.17700195 C-12.66316824 23.92472969 -11.58006719 30.34464366 -11.56469727 35.92700195 C-11.58081055 37.08200195 -11.59692383 38.23700195 -11.61352539 39.42700195 C-11.6187596 48.59733657 -10.43807068 55.64875305 -4.04907227 62.57543945 C4.22726787 69.9521774 13.98456157 71.52480004 24.68530273 71.42700195 C25.94890625 71.43860352 25.94890625 71.43860352 27.23803711 71.45043945 C37.82247457 71.41784688 46.99650185 69.25861246 55.01733398 62.0168457 C61.91682066 54.68127409 64.39618513 45.75230646 66.74780273 36.17700195 C66.94245117 35.4499707 67.13709961 34.72293945 67.33764648 33.97387695 C68.31055025 29.71163189 68.07008659 26.09013956 66.62280273 21.98950195 C64.39197348 18.64325807 62.47922535 16.62677946 58.74780273 15.17700195 C54.10318999 14.57683776 49.48816095 14.61675875 44.81030273 14.64575195 C43.44319381 14.64305389 42.07608677 14.63916885 40.70898438 14.63415527 C37.8509688 14.62827484 34.99345504 14.63677514 32.13549805 14.65551758 C28.48362785 14.67830743 24.83293368 14.66517635 21.18110657 14.64122772 C18.36022176 14.62672961 15.53961289 14.63139383 12.71871948 14.64173889 C10.721326 14.64568086 8.72392151 14.63359538 6.7265625 14.62121582 C-2.12185539 14.5881435 -2.12185539 14.5881435 -9.25219727 19.17700195 Z M112.74780273 18.17700195 C108.90448317 23.68576 109.23814048 28.75629584 110.18139648 35.0871582 C112.3329158 46.08529733 116.4721823 57.8036608 125.63452148 64.84887695 C134.24417034 70.25974684 142.07036373 71.35753061 152.06030273 71.36450195 C152.97231445 71.37674805 153.88432617 71.38899414 154.82397461 71.40161133 C164.19394922 71.42176181 173.51384175 69.88756684 180.70092773 63.41918945 C188.48782923 55.07608071 189.2535877 47.08933507 189.18530273 36.05200195 C189.2052832 34.89829102 189.22526367 33.74458008 189.24584961 32.5559082 C189.24576846 24.03973136 189.24576846 24.03973136 184.74780273 17.17700195 C181.39301225 15.02810913 178.63816909 14.91924195 174.69750977 14.90234375 C173.47589142 14.89281174 172.25427307 14.88327972 170.99563599 14.87345886 C169.67892914 14.87437027 168.36222229 14.87528168 167.00561523 14.8762207 C165.63564932 14.87233127 164.2656846 14.86799608 162.89572144 14.86323547 C160.02590017 14.85578055 157.15620193 14.85605881 154.28637695 14.86132812 C150.61896503 14.86711621 146.95205922 14.85020484 143.28473091 14.82698345 C140.45532311 14.81220876 137.62603607 14.81137955 134.79659653 14.81449318 C132.79032923 14.81373384 130.78408061 14.79988821 128.77786255 14.78581238 C127.54993988 14.79204117 126.32201721 14.79826996 125.05688477 14.8046875 C123.44283249 14.80374336 123.44283249 14.80374336 121.7961731 14.80278015 C118.21481367 15.24243237 115.82615951 16.31757758 112.74780273 18.17700195 Z M80.74780273 36.17700195 C79.61732817 39.47921923 79.61732817 39.47921923 78.87280273 43.17700195 C75.32854539 57.77820636 67.83236668 70.09718369 54.93139648 78.3371582 C46.43992152 82.7253701 37.19978839 84.38933648 27.74780273 85.17700195 C27.74780273 85.50700195 27.74780273 85.83700195 27.74780273 86.17700195 C42.56376914 86.58771149 54.38795891 86.39885434 66.74780273 77.17700195 C68.48032947 75.4262381 70.01148316 73.65737775 71.49389648 71.69262695 C73.4652231 69.30983964 75.20419561 68.25027649 78.25634766 67.83886719 C81.48308674 67.72674112 84.70686908 67.65681191 87.93530273 67.61450195 C89.04711914 67.56487305 90.15893555 67.51524414 91.30444336 67.46411133 C97.10680629 67.39196827 100.84832217 67.6046806 105.31811523 71.5168457 C106.4760975 72.7229042 107.62007553 73.94260681 108.74780273 75.17700195 C120.83088677 85.81384224 133.33356447 86.90946312 148.74780273 86.17700195 C148.74780273 85.84700195 148.74780273 85.51700195 148.74780273 85.17700195 C147.58764648 85.03004883 146.42749023 84.8830957 145.23217773 84.73168945 C131.37515689 82.81243037 119.22007451 79.17191929 109.74780273 68.17700195 C103.79876272 59.88340473 100.46359084 51.26338721 97.73730469 41.48632812 C97.4079895 40.32194214 97.4079895 40.32194214 97.07202148 39.1340332 C96.88728271 38.442854 96.70254395 37.7516748 96.51220703 37.03955078 C95.59083509 34.79453432 94.67045576 33.65659535 92.74780273 32.17700195 C86.97997247 31.53613192 84.46853189 31.36423489 80.74780273 36.17700195 Z M76.74780273 77.17700195 C77.08230797 82.47626909 79.84624544 85.11796328 83.56420898 88.6105957 C85.78933303 90.47109756 85.78933303 90.47109756 89.31030273 90.61450195 C93.80234058 88.7360134 96.86971285 86.10388731 99.74780273 82.17700195 C100.65661472 80.19545794 100.65661472 80.19545794 100.74780273 78.17700195 C100.08780273 77.18700195 99.42780273 76.19700195 98.74780273 75.17700195 C96.65601331 74.72924593 96.65601331 74.72924593 94.24780273 74.8137207 C93.36092773 74.81436523 92.47405273 74.81500977 91.56030273 74.81567383 C90.63217773 74.83178711 89.70405273 74.84790039 88.74780273 74.86450195 C87.81967773 74.8612793 86.89155273 74.85805664 85.93530273 74.85473633 C80.81167617 74.59000359 80.81167617 74.59000359 76.74780273 77.17700195 Z " fill="#ADE4BB" transform="translate(161.252197265625,200.822998046875)"/>
<path d="M0 0 C0.80826233 0.00182281 1.61652466 0.00364563 2.44927979 0.00552368 C15.46990871 0.05477254 28.07100016 0.80502965 40.875 3.3125 C41.79313477 3.48410645 42.71126953 3.65571289 43.65722656 3.83251953 C63.59586501 7.61282052 82.73395248 13.15895085 100.875 22.3125 C101.96039063 22.80878906 103.04578125 23.30507813 104.1640625 23.81640625 C120.76275721 31.5715341 135.79048146 42.68503346 149.875 54.3125 C151.06609375 55.27349609 151.06609375 55.27349609 152.28125 56.25390625 C153.85860541 57.55272073 155.37770202 58.92215188 156.875 60.3125 C156.875 60.9725 156.875 61.6325 156.875 62.3125 C157.7103125 62.6528125 157.7103125 62.6528125 158.5625 63 C161.53659588 64.68800036 163.59508865 66.77926517 165.875 69.3125 C165.875 69.9725 165.875 70.6325 165.875 71.3125 C166.535 71.3125 167.195 71.3125 167.875 71.3125 C170.45728746 73.73242807 172.62405567 76.58787869 174.875 79.3125 C175.3169873 79.84359375 175.75897461 80.3746875 176.21435547 80.921875 C215.88373972 128.76759753 235.52454701 188.51099719 230.41235352 250.70825195 C226.09330315 293.52828335 210.64475837 333.90138553 184.875 368.3125 C184.32199219 369.06144531 183.76898438 369.81039063 183.19921875 370.58203125 C171.55929831 386.00006429 157.2182074 400.5917052 141.875 412.3125 C141.33858887 412.73063965 140.80217773 413.1487793 140.24951172 413.57958984 C130.03160621 421.52041179 119.23219128 428.1286826 107.875 434.3125 C107.19324707 434.68503906 106.51149414 435.05757813 105.80908203 435.44140625 C94.60421554 441.48874271 82.89652274 446.14895961 70.875 450.3125 C70.15715332 450.56128906 69.43930664 450.81007813 68.69970703 451.06640625 C32.91632336 463.05987935 -7.3873471 463.65216665 -44.125 456.3125 C-45.30980957 456.08820313 -45.30980957 456.08820313 -46.51855469 455.859375 C-51.46020017 454.90846594 -56.29083595 453.70791799 -61.125 452.3125 C-61.98528809 452.06580566 -62.84557617 451.81911133 -63.73193359 451.56494141 C-87.04896093 444.70794518 -109.34330173 434.49851888 -129.125 420.3125 C-129.80594727 419.8292627 -130.48689453 419.34602539 -131.18847656 418.84814453 C-139.78468956 412.70770694 -147.91068823 406.24078724 -155.50439453 398.88183594 C-156.65833933 397.76439738 -157.81890222 396.6537759 -158.98388672 395.54785156 C-169.14849028 385.8818322 -178.00629407 375.74899915 -186.125 364.3125 C-186.57037109 363.69052734 -187.01574219 363.06855469 -187.47460938 362.42773438 C-215.06630812 323.56559893 -229.3948878 277.17543678 -229.3125 229.625 C-229.31156342 228.92118195 -229.31062683 228.21736389 -229.30966187 227.49221802 C-229.19819864 188.73541115 -218.74123385 152.17795268 -200.125 118.3125 C-199.53847656 117.23097656 -198.95195312 116.14945312 -198.34765625 115.03515625 C-191.05329015 102.03370664 -182.10936137 90.05242488 -172.3046875 78.8515625 C-170.0429442 76.32059226 -170.0429442 76.32059226 -168.125 73.3125 C-167.465 73.3125 -166.805 73.3125 -166.125 73.3125 C-165.89039063 72.75175781 -165.65578125 72.19101563 -165.4140625 71.61328125 C-163.81110756 68.75224956 -161.8382677 66.798452 -159.5 64.5 C-158.68273437 63.68917969 -157.86546875 62.87835938 -157.0234375 62.04296875 C-134.21466685 40.55600018 -107.49494058 24.17475109 -78.125 13.3125 C-77.46902832 13.06258301 -76.81305664 12.81266602 -76.13720703 12.55517578 C-51.97808752 3.43405261 -25.72843025 -0.12128842 0 0 Z M-34.125 16.3125 C-35.28008057 16.48193115 -35.28008057 16.48193115 -36.45849609 16.65478516 C-66.39009779 21.09371834 -96.46535122 32.66614582 -121.125 50.3125 C-122.11886719 51.01632813 -123.11273438 51.72015625 -124.13671875 52.4453125 C-140.61212788 64.46266975 -155.60826759 78.19002999 -168.125 94.3125 C-168.81722656 95.17617187 -169.50945312 96.03984375 -170.22265625 96.9296875 C-205.18299536 141.72460477 -221.74733829 199.45410991 -214.79785156 255.97314453 C-211.98653571 276.80048834 -206.66327196 297.08025374 -198.125 316.3125 C-197.84076172 316.96702148 -197.55652344 317.62154297 -197.26367188 318.29589844 C-188.14200845 339.18903897 -175.67549928 358.55126686 -160.0625 375.19921875 C-158.125 377.3125 -158.125 377.3125 -156 380.08203125 C-155.38125 380.81808594 -154.7625 381.55414063 -154.125 382.3125 C-153.465 382.3125 -152.805 382.3125 -152.125 382.3125 C-151.86460937 382.90804688 -151.60421875 383.50359375 -151.3359375 384.1171875 C-150.03733375 386.47143043 -148.80020844 387.71601697 -146.75 389.4375 C-146.0384375 390.03820312 -145.326875 390.63890625 -144.59375 391.2578125 C-143.37171875 392.27488281 -143.37171875 392.27488281 -142.125 393.3125 C-141.1865625 394.11429687 -140.248125 394.91609375 -139.28125 395.7421875 C-133.12298158 400.96401819 -126.87311374 405.86769165 -120.125 410.3125 C-119.03574219 411.04855469 -117.94648438 411.78460938 -116.82421875 412.54296875 C-71.32088882 442.60907976 -12.58745394 454.96424518 41.03515625 444.08984375 C54.69337904 441.17978232 67.89837998 437.47904113 80.875 432.3125 C82.01026123 431.86052246 82.01026123 431.86052246 83.16845703 431.39941406 C107.36034884 421.5771422 129.01141636 407.30006582 147.875 389.3125 C149.20165194 388.17962868 150.53436258 387.05378585 151.875 385.9375 C188.49101791 353.84197813 212.45873733 301.37520279 216.875 253.3125 C217.03935547 251.81589844 217.03935547 251.81589844 217.20703125 250.2890625 C222.44563448 195.94728504 205.94738831 138.28109073 171.20361328 95.91748047 C170.7651709 95.38783691 170.32672852 94.85819336 169.875 94.3125 C169.3991748 93.73516113 168.92334961 93.15782227 168.43310547 92.56298828 C147.29127721 67.0564843 121.94545718 47.27199676 91.875 33.3125 C90.64354248 32.72251221 90.64354248 32.72251221 89.38720703 32.12060547 C82.65351125 28.95358305 75.86509284 26.4789598 68.75 24.3125 C67.07514526 23.8009436 67.07514526 23.8009436 65.36645508 23.27905273 C57.50057241 20.94406715 49.60454873 18.99886343 41.5625 17.375 C40.58071777 17.17583984 39.59893555 16.97667969 38.58740234 16.77148438 C26.03354812 14.38593372 13.42600722 14.10531368 0.6875 14.125 C-0.40274475 14.12590637 -0.40274475 14.12590637 -1.51501465 14.12683105 C-12.50979157 14.15159271 -23.26239713 14.53096277 -34.125 16.3125 Z " fill="#ADE2BC" transform="translate(249.125,23.6875)"/>
<path d="M0 0 C0.72815918 -0.00428513 1.45631836 -0.00857025 2.20654297 -0.01298523 C3.73599209 -0.01869198 5.26546833 -0.01925598 6.79492188 -0.01489258 C9.1189645 -0.01172697 11.4417387 -0.03525521 13.765625 -0.06054688 C15.26041508 -0.0628199 16.75520854 -0.06352335 18.25 -0.0625 C18.93562012 -0.07170975 19.62124023 -0.08091949 20.32763672 -0.09040833 C26.35091452 -0.03335434 30.84080474 1.44818455 35.52441406 5.24682617 C38.04909076 10.06396785 37.72845055 14.80381609 37.734375 20.1640625 C37.75091125 21.3111821 37.76744751 22.4583017 37.78448486 23.6401825 C37.83300391 27.29793634 37.85434551 30.95527428 37.875 34.61328125 C37.90315625 37.09572409 37.93308318 39.57814753 37.96484375 42.06054688 C38.03876412 48.1405494 38.09038385 54.22043477 38.125 60.30078125 C39.775 60.30078125 41.425 60.30078125 43.125 60.30078125 C43.13086624 59.75398712 43.13673248 59.20719299 43.14277649 58.64382935 C43.20658104 52.96614606 43.29096575 47.28903646 43.38745117 41.61181641 C43.4207596 39.49145051 43.4487729 37.37099468 43.47143555 35.25048828 C43.50487303 32.2069659 43.55718253 29.16427213 43.61328125 26.12109375 C43.61967117 25.16897003 43.6260611 24.21684631 43.63264465 23.23587036 C43.66233589 21.91472733 43.66233589 21.91472733 43.69262695 20.56689453 C43.70928154 19.40107346 43.70928154 19.40107346 43.72627258 18.21170044 C44.125 16.30078125 44.125 16.30078125 47.125 14.30078125 C61.07272978 17.00034185 75.32895126 29.60872502 83.25 40.86328125 C84.22144095 42.33387273 85.18501921 43.80988457 86.125 45.30078125 C87.115 44.45515625 88.105 43.60953125 89.125 42.73828125 C89.76695312 42.19171875 90.40890625 41.64515625 91.0703125 41.08203125 C92.4164737 39.91501698 93.74556711 38.72795008 95.0546875 37.51953125 C101.61057173 31.51655292 108.06031318 26.87937828 117.125 26.30078125 C119.62764528 30.80457918 120.97474673 35.08296626 121.8046875 40.1328125 C121.93165009 40.90446243 122.05861267 41.67611237 122.18942261 42.47114563 C123.77042717 53.25348549 123.40721089 64.12169887 123.25 74.98828125 C123.21473248 78.2191245 123.18400181 81.44992609 123.15866089 84.68086243 C123.14189996 86.6709901 123.11894431 88.66107902 123.08865356 90.65104675 C123.04559295 94.63282039 123.06369853 98.45882834 123.68701172 102.39770508 C123.90381592 103.83472778 123.90381592 103.83472778 124.125 105.30078125 C123.795 105.63078125 123.465 105.96078125 123.125 106.30078125 C116.92044644 105.79568008 110.7839947 104.82089018 104.62850952 103.90586853 C38.78528017 94.15702919 -30.05493334 92.89160189 -95.65429688 105.38671875 C-98.82890219 105.98740704 -101.62066409 106.30078125 -104.875 106.30078125 C-105.88588868 102.93115232 -105.82078231 100.15358053 -105.40185547 96.71704102 C-104.85531497 91.62051908 -104.79352992 86.63536731 -104.8828125 81.515625 C-104.90034331 79.66602125 -104.91725017 77.8164115 -104.93359375 75.96679688 C-104.96431008 73.11285969 -104.9996568 70.25923973 -105.04638672 67.40551758 C-105.195596 57.74463546 -105.20444163 48.28824044 -103.5546875 38.7421875 C-103.43747345 38.05777084 -103.3202594 37.37335419 -103.19949341 36.66819763 C-102.41646234 32.6844067 -101.16828301 29.64598844 -98.875 26.30078125 C-87.37966933 27.33149583 -77.57405117 36.09073111 -69.875 44.30078125 C-69.875 44.96078125 -69.875 45.62078125 -69.875 46.30078125 C-67.71088257 44.23790908 -65.96850453 42.11786664 -64.25 39.67578125 C-55.51455198 28.01427852 -43.26071058 18.00663367 -28.875 14.30078125 C-27.885 14.79578125 -27.885 14.79578125 -26.875 15.30078125 C-25.90883537 19.44647824 -25.7668402 23.41760018 -25.8125 27.66015625 C-25.82023437 28.85898438 -25.82796875 30.0578125 -25.8359375 31.29296875 C-25.86181676 33.78255378 -25.88785638 36.27213714 -25.9140625 38.76171875 C-25.95851723 45.68183766 -25.76563113 52.43417425 -24.875 59.30078125 C-23.555 59.30078125 -22.235 59.30078125 -20.875 59.30078125 C-19.6568717 56.86452465 -19.74405962 55.28598179 -19.7331543 52.56323242 C-19.72611984 51.57848434 -19.71908539 50.59373627 -19.71183777 49.57914734 C-19.70559135 47.97762566 -19.70559135 47.97762566 -19.69921875 46.34375 C-19.67602011 44.09439169 -19.65190275 41.8450427 -19.62695312 39.59570312 C-19.59182651 36.04054536 -19.56249037 32.48573015 -19.54907227 28.93041992 C-19.53360616 25.50527207 -19.49340155 22.081132 -19.44921875 18.65625 C-19.45112717 17.59464157 -19.45303558 16.53303314 -19.45500183 15.43925476 C-19.38325135 11.11356621 -19.28627843 8.09450401 -17.27661133 4.21606445 C-12.16756868 0.14160683 -6.30327596 -0.00837906 0 0 Z " fill="#ACE4BA" transform="translate(240.875,70.69921875)"/>
<path d="M0 0 C2.69949148 -0.00396686 5.39893134 -0.01281365 8.09840775 -0.0224762 C39.2638154 -0.11130005 70.24163318 1.53138872 101.16160965 5.57627869 C103.54850788 5.88509916 105.93778951 6.16798939 108.32786942 6.45103455 C124.42814404 8.45069345 124.42814404 8.45069345 130.12669754 12.43345642 C132.12669754 15.43345642 132.12669754 15.43345642 132.06419754 18.43345642 C131.12669754 21.43345642 131.12669754 21.43345642 128.89305496 23.15293884 C125.68849238 24.63629695 124.35263667 24.57919159 120.92747879 23.92173767 C108.92641963 21.70417885 97.02480389 20.02238598 84.83763504 19.30064392 C83.80027993 19.23882463 83.80027993 19.23882463 82.74196815 19.17575645 C58.6514351 17.79536911 34.48125435 18.17503679 10.36229324 18.23783875 C5.13244174 18.24866036 -0.097384 18.24825867 -5.32724476 18.24784184 C-37.71767851 18.21620949 -37.71767851 18.21620949 -70.09986496 18.85533142 C-71.23207977 18.89016129 -72.36429459 18.92499115 -73.53081894 18.96087646 C-86.70017823 19.45847907 -100.1885736 20.50348121 -113.12965012 23.0823822 C-114.1858757 23.29233826 -115.24210129 23.50229431 -116.33033371 23.71861267 C-117.27497482 23.92494324 -118.21961594 24.1312738 -119.19288254 24.34385681 C-122.60351918 24.45786571 -124.15080184 23.40792173 -126.87330246 21.43345642 C-127.87330246 20.43345642 -127.87330246 20.43345642 -128.24830246 17.62095642 C-127.87330246 14.43345642 -127.87330246 14.43345642 -125.74830246 12.18345642 C-115.56162205 5.98286835 -101.84133621 6.08183049 -90.21601486 4.7106781 C-88.65646825 4.52613128 -87.09725784 4.33872035 -85.53840256 4.14842224 C-57.06174615 0.68501538 -28.65113421 0.03252619 0 0 Z " fill="#ADE4BD" transform="translate(247.8733024597168,176.56654357910156)"/>
<path d="M0 0 C1.14662109 0.00064453 2.29324219 0.00128906 3.47460938 0.00195312 C4.66763672 0.01806641 5.86066406 0.03417969 7.08984375 0.05078125 C8.28673828 0.04755859 9.48363281 0.04433594 10.71679688 0.04101562 C19.62667633 0.09616963 19.62667633 0.09616963 23.02734375 2.36328125 C23.46484375 5.17578125 23.46484375 5.17578125 23.02734375 8.36328125 C22.34671875 9.16765625 21.66609375 9.97203125 20.96484375 10.80078125 C18.71779857 13.2147061 18.71779857 13.2147061 19.12109375 16.26953125 C20.30645673 22.99302241 23.35697673 29.34080748 25.87695312 35.64648438 C26.27849609 36.67837891 26.68003906 37.71027344 27.09375 38.7734375 C27.46443604 39.70293213 27.83512207 40.63242676 28.21704102 41.59008789 C29.12281886 44.69003682 29.3139803 47.14987574 29.02734375 50.36328125 C26.95703125 52.83984375 26.95703125 52.83984375 24.02734375 55.36328125 C22.92380086 56.41067781 21.82233503 57.46026593 20.72265625 58.51171875 C19.53466108 59.58956867 18.34452314 60.66506119 17.15234375 61.73828125 C16.56582031 62.29644531 15.97929687 62.85460937 15.375 63.4296875 C12.20435502 66.25190995 10.79470052 67.33828592 6.4296875 67.48046875 C2.63491189 66.23442303 0.45581686 64.74289953 -2.53515625 62.11328125 C-3.94087891 60.89705078 -3.94087891 60.89705078 -5.375 59.65625 C-6.23222656 58.89957031 -7.08945313 58.14289063 -7.97265625 57.36328125 C-9.17719835 56.37945447 -10.38462858 55.39912635 -11.59765625 54.42578125 C-13.97265625 52.36328125 -13.97265625 52.36328125 -14.97265625 50.36328125 C-14.67363842 42.72682591 -12.35653532 36.60698348 -9.41015625 29.61328125 C-8.56763251 27.60094078 -7.73268705 25.58540655 -6.90625 23.56640625 C-6.53556396 22.68629883 -6.16487793 21.80619141 -5.78295898 20.89941406 C-4.9162794 18.1868297 -4.67912943 16.19132778 -4.97265625 13.36328125 C-6.28011374 11.67623932 -7.61437654 10.0096809 -8.97265625 8.36328125 C-9.72265625 5.55078125 -9.72265625 5.55078125 -9.97265625 3.36328125 C-6.65745734 0.35258507 -4.42723262 -0.01257833 0 0 Z " fill="#ACE4BB" transform="translate(242.97265625,375.63671875)"/>
<path d="M0 0 C3.77342731 0.37251385 6.61766343 1.75616969 9.90698242 3.57739258 C27.20026485 13.08482049 46.56385946 16.87417213 66 19 C66.495 20.485 66.495 20.485 67 22 C62.44900646 28.96034307 56.67914193 35.110078 51.19140625 41.34375 C49.27525875 43.52203594 47.41954814 45.71498122 45.58984375 47.96875 C44.92082031 48.7834375 44.25179687 49.598125 43.5625 50.4375 C43.00691406 51.13746094 42.45132813 51.83742188 41.87890625 52.55859375 C40 54 40 54 36.9765625 54.40625 C33.66411395 53.95415728 32.9174488 53.55119281 30.8125 51.0625 C28.11183664 48.1046306 25.3559859 45.63895851 22.1875 43.1875 C16.58078048 38.68489703 11.5178986 33.70942547 6.4375 28.625 C5.63916748 27.82731201 4.84083496 27.02962402 4.01831055 26.20776367 C-4.28588259 17.82505232 -4.28588259 17.82505232 -4.3125 12.75 C-4.22364163 8.21822334 -3.35208971 3.35208971 0 0 Z " fill="#ACE3BB" transform="translate(171,336)"/>
<path d="M0 0 C1.87109375 0.81640625 1.87109375 0.81640625 3.62109375 3.81640625 C5.2084901 8.17728723 5.9258847 12.24564548 4.87109375 16.81640625 C3.03815335 19.97756433 0.49003669 22.29322751 -2.12890625 24.81640625 C-3.23188911 25.93612685 -4.33191057 27.05876879 -5.4296875 28.18359375 C-11.44541256 34.31807717 -17.52151895 40.31669012 -24.12890625 45.81640625 C-25.04800781 46.62464844 -25.96710938 47.43289063 -26.9140625 48.265625 C-27.89246094 49.10738281 -28.87085938 49.94914062 -29.87890625 50.81640625 C-30.78125 51.60015625 -31.68359375 52.38390625 -32.61328125 53.19140625 C-35.12890625 54.81640625 -35.12890625 54.81640625 -37.12890625 54.90625 C-40.11588779 53.27857842 -42.16632181 50.90469465 -44.37890625 48.37890625 C-44.86198242 47.83975586 -45.34505859 47.30060547 -45.84277344 46.74511719 C-49.47008587 42.66108549 -52.91863287 38.44994728 -56.265625 34.1328125 C-58.66229797 31.15330081 -61.28549394 28.41774777 -63.9765625 25.703125 C-65.12890625 23.81640625 -65.12890625 23.81640625 -64.8125 21.0859375 C-64.58691406 20.33699219 -64.36132812 19.58804687 -64.12890625 18.81640625 C-63.58177979 18.75171143 -63.03465332 18.6870166 -62.47094727 18.62036133 C-42.2551724 16.16120108 -21.35226423 11.8184537 -3.9609375 0.6015625 C-2.12890625 -0.18359375 -2.12890625 -0.18359375 0 0 Z " fill="#ACE3BB" transform="translate(328.12890625,336.18359375)"/>
<path d="M0 0 C25.74 0 51.48 0 78 0 C78 0.33 78 0.66 78 1 C76.5225254 1.36116046 75.04295325 1.71375048 73.5625 2.0625 C72.73878906 2.25972656 71.91507812 2.45695313 71.06640625 2.66015625 C70.04353516 2.82837891 70.04353516 2.82837891 69 3 C68.505 2.505 68.505 2.505 68 2 C65.89294234 2.09535589 63.78877637 2.25468219 61.6875 2.4375 C55.24628435 2.93885481 48.83520372 3.11611715 42.375 3.125 C41.09629028 3.13164673 41.09629028 3.13164673 39.79174805 3.13842773 C35.69676953 3.12906453 32.01503637 2.86455163 28 2 C26.10415733 2.26149554 24.2085213 2.52527191 22.31640625 2.8125 C18.69951864 3.10526662 15.20243467 2.61333466 11.61328125 2.15625 C8.97965105 1.8660197 8.97965105 1.8660197 6.41796875 2.65625 C4 3 4 3 0 0 Z " fill="#B8DDC5" transform="translate(211,177)"/>
<path d="M0 0 C0.66 0.33 1.32 0.66 2 1 C2 4.42085146 1.21894397 6.81720186 0 10 C-0.66 10.66 -1.32 11.32 -2 12 C-2.76259042 13.85359569 -3.46482767 15.73250598 -4.125 17.625 C-4.47820312 18.62789063 -4.83140625 19.63078125 -5.1953125 20.6640625 C-5.46085938 21.43492187 -5.72640625 22.20578125 -6 23 C-4.35 23.33 -2.7 23.66 -1 24 C-1 24.99 -1 25.98 -1 27 C-0.38125 27.12375 0.2375 27.2475 0.875 27.375 C3 28 3 28 5 30 C5 30.99 5 31.98 5 33 C5.7425 33.0825 6.485 33.165 7.25 33.25 C10 34 10 34 11.9375 36.0625 C13.92571357 38.33578877 13.92571357 38.33578877 17.25 38.25 C18.1575 38.1675 19.065 38.085 20 38 C19.34 38.99 18.68 39.98 18 41 C12.43895945 40.58653974 9.61180697 39.4199875 5.4375 35.75 C4.03177734 34.53376953 4.03177734 34.53376953 2.59765625 33.29296875 C1.74042969 32.53628906 0.88320312 31.77960938 0 31 C-1.2045421 30.01617322 -2.41197233 29.0358451 -3.625 28.0625 C-6 26 -6 26 -7 24 C-6.85177093 15.25448496 -3.40755614 7.90928168 0 0 Z " fill="#B6E1C3" transform="translate(235,402)"/>
<path d="M0 0 C0.81831299 0.04310303 1.63662598 0.08620605 2.47973633 0.13061523 C8.22418289 0.48709145 8.22418289 0.48709145 10.5 1.625 C10.5 0.965 10.5 0.305 10.5 -0.375 C11.14324219 -0.3028125 11.78648437 -0.230625 12.44921875 -0.15625 C18.92597081 0.50897988 25.24143184 0.66041371 31.75 0.46484375 C34.5 0.625 34.5 0.625 37.5 2.625 C36.5 3.625 36.5 3.625 33.91209412 3.70729065 C32.75959671 3.68730515 31.6070993 3.66731964 30.41967773 3.64672852 C28.46776772 3.61658409 28.46776772 3.61658409 26.47642517 3.58583069 C25.04547931 3.55863013 23.61453555 3.53131936 22.18359375 3.50390625 C20.72771421 3.47961521 19.27182715 3.45577116 17.81593323 3.43235779 C13.97713681 3.36941559 10.13847293 3.30037792 6.29980469 3.23010254 C2.38547826 3.15951036 -1.52894241 3.09463893 -5.44335938 3.02929688 C-13.12901046 2.90015399 -20.81453057 2.76457639 -28.5 2.625 C-28.5 1.965 -28.5 1.305 -28.5 0.625 C-18.96147097 -0.11574598 -9.56238231 -0.51452226 0 0 Z " fill="#BCE1C7" transform="translate(249.5,164.375)"/>
<path d="M0 0 C0.66 0.33 1.32 0.66 2 1 C1.83923477 1.57111511 1.67846954 2.14223022 1.51283264 2.73065186 C1.00219253 4.99029778 0.84343716 6.99698057 0.79467773 9.30957031 C0.77473251 10.15013977 0.75478729 10.99070923 0.73423767 11.85675049 C0.70916893 13.20383087 0.70916893 13.20383087 0.68359375 14.578125 C0.66281265 15.5046991 0.64203156 16.43127319 0.62062073 17.38592529 C0.55533039 20.34054272 0.49633569 23.29524768 0.4375 26.25 C0.39429527 28.25521732 0.35068035 30.26042585 0.30664062 32.265625 C0.19967001 37.17699404 0.09834482 42.08845097 0 47 C-0.66 47 -1.32 47 -2 47 C-2.33 47.99 -2.66 48.98 -3 50 C-4.65 49.67 -6.3 49.34 -8 49 C-7.67 48.01 -7.34 47.02 -7 46 C-5.68 46 -4.36 46 -3 46 C-2.99191315 45.45320587 -2.98382629 44.90641174 -2.97549438 44.3430481 C-2.88961231 38.66546886 -2.79011675 32.9882454 -2.68261719 27.31103516 C-2.64427158 25.1906531 -2.60942867 23.07020474 -2.578125 20.94970703 C-2.53259534 17.90633402 -2.47458161 14.86341968 -2.4140625 11.8203125 C-2.39673569 10.39212692 -2.39673569 10.39212692 -2.37905884 8.93508911 C-2.35918915 8.05432709 -2.33931946 7.17356506 -2.31884766 6.26611328 C-2.30552399 5.48889923 -2.29220032 4.71168518 -2.2784729 3.91091919 C-2 2 -2 2 0 0 Z " fill="#B4DCBE" transform="translate(287,85)"/>
<path d="M0 0 C0.66 0.99 1.32 1.98 2 3 C1.67 3.99 1.34 4.98 1 6 C0.01 5.34 -0.98 4.68 -2 4 C-5.87859244 4 -8.46748339 5.45065061 -12 7 C-12.763125 7.144375 -13.52625 7.28875 -14.3125 7.4375 C-16.22766928 7.87357398 -16.22766928 7.87357398 -17.25 10.0625 C-17.4975 10.701875 -17.745 11.34125 -18 12 C-18.99 12 -19.98 12 -21 12 C-21.2475 12.5775 -21.495 13.155 -21.75 13.75 C-23.16683317 16.3002997 -24.87627537 18.01785701 -27 20 C-27.99 19.67 -28.98 19.34 -30 19 C-23.0107636 11.78530436 -16.07259444 5.46916386 -7 1 C-4.46578263 -0.26710868 -2.80561762 -0.28056176 0 0 Z " fill="#B7DDC2" transform="translate(358,97)"/>
<path d="M0 0 C3.63 0.33 7.26 0.66 11 1 C11 1.66 11 2.32 11 3 C11.72469482 2.81896729 12.44938965 2.63793457 13.19604492 2.45141602 C16.10282751 1.98344553 18.00322295 2.16842811 20.86328125 2.77734375 C22.19262695 3.05288086 22.19262695 3.05288086 23.54882812 3.33398438 C24.9168457 3.63272461 24.9168457 3.63272461 26.3125 3.9375 C27.24384766 4.13279297 28.17519531 4.32808594 29.13476562 4.52929688 C31.42516419 5.01086785 33.71327271 5.50133772 36 6 C36 6.66 36 7.32 36 8 C37.65 8 39.3 8 41 8 C41 8.66 41 9.32 41 10 C39.95211304 9.78851318 39.95211304 9.78851318 38.88305664 9.57275391 C25.29615089 6.84800858 11.80497354 4.28820784 -2 3 C-1.34 2.67 -0.68 2.34 0 2 C0 1.34 0 0.68 0 0 Z " fill="#BEE1C8" transform="translate(269,36)"/>
<path d="M0 0 C0.33 1.65 0.66 3.3 1 5 C-0.6396875 5.2165625 -0.6396875 5.2165625 -2.3125 5.4375 C-5.93122987 5.88288104 -5.93122987 5.88288104 -9 7 C-12.5625 6.3125 -12.5625 6.3125 -16 5 C-17.21484375 2.91796875 -17.21484375 2.91796875 -18 1 C-15.56348622 0.63737003 -13.12623023 0.28461036 -10.6875 -0.0625 C-9.99720703 -0.16626953 -9.30691406 -0.27003906 -8.59570312 -0.37695312 C-5.30415164 -0.83808836 -3.19783876 -1.06594625 0 0 Z " fill="#ABE5BA" transform="translate(391,261)"/>
<path d="M0 0 C6.67353409 0.28398017 10.71077185 3.07805532 16 7 C15.01 8.485 15.01 8.485 14 10 C14 9.01 14 8.02 14 7 C12.02 7 10.04 7 8 7 C8 6.34 8 5.68 8 5 C7.34 5 6.68 5 6 5 C6 4.34 6 3.68 6 3 C4.35 3.33 2.7 3.66 1 4 C0.81824219 4.68707031 0.63648438 5.37414062 0.44921875 6.08203125 C0.19785156 6.98308594 -0.05351562 7.88414063 -0.3125 8.8125 C-0.55613281 9.70582031 -0.79976562 10.59914063 -1.05078125 11.51953125 C-2.0200819 14.05247738 -2.95009604 15.2716496 -5 17 C-4.74273307 15.10227809 -4.46856661 13.20684323 -4.1875 11.3125 C-4.03667969 10.25675781 -3.88585937 9.20101562 -3.73046875 8.11328125 C-2.97608241 4.89806247 -1.84125013 2.71899677 0 0 Z " fill="#B7DEBF" transform="translate(142,97)"/>
<path d="M0 0 C1.0725 0.33 2.145 0.66 3.25 1 C7.86137295 2.16506419 12.22549087 2.09176886 16.95703125 2.0078125 C22.39921902 1.99384026 27.82068732 2.27356244 33 4 C34.33106622 4.34227417 35.66400079 4.67751743 37 5 C36 6 36 6 34.26025391 6.0534668 C33.50663574 6.01906494 32.75301758 5.98466309 31.9765625 5.94921875 C31.12860107 5.91111084 30.28063965 5.87300293 29.40698242 5.83374023 C28.48892822 5.78548096 27.57087402 5.73722168 26.625 5.6875 C25.69212158 5.64117432 24.75924316 5.59484863 23.7980957 5.54711914 C14.49291344 5.04424233 5.25248497 4.08914966 -4 3 C-2.68 2.67 -1.36 2.34 0 2 C0 1.34 0 0.68 0 0 Z " fill="#BAE2C8" transform="translate(292,165)"/>
<path d="M0 0 C2.06473432 0.76482838 4.1267021 1.53712765 6.1875 2.3125 C7.33605469 2.74175781 8.48460937 3.17101563 9.66796875 3.61328125 C12.66515244 4.86064375 15.24542478 6.30197418 18 8 C19.98451771 8.71143088 21.98202112 9.38991336 24 10 C24 10.66 24 11.32 24 12 C25.32 12.33 26.64 12.66 28 13 C28.33 14.32 28.66 15.64 29 17 C28.1028125 16.50371094 27.205625 16.00742188 26.28125 15.49609375 C17.06173829 10.45660961 7.68324327 6.07179743 -2 2 C-1.34 1.34 -0.68 0.68 0 0 Z " fill="#BBE4C8" transform="translate(332,51)"/>
<path d="M0 0 C2 3.75 2 3.75 2 6 C1.01 6.66 0.02 7.32 -1 8 C-1.98042795 10.14350937 -1.98042795 10.14350937 -2.75 12.625 C-4.81877433 18.14439407 -7.8797706 21.8606512 -12 26 C-12.76570312 26.84691406 -12.76570312 26.84691406 -13.546875 27.7109375 C-15 29 -15 29 -17.6875 29.1875 C-18.8321875 29.0946875 -18.8321875 29.0946875 -20 29 C-20 28.34 -20 27.68 -20 27 C-18.989375 26.525625 -17.97875 26.05125 -16.9375 25.5625 C-8.51634483 20.66291881 -5.04369001 12.48923235 -1.9453125 3.625 C-1 1 -1 1 0 0 Z " fill="#B9E1C6" transform="translate(227,241)"/>
<path d="M0 0 C10.04600431 1.57548038 20.47307146 7.59744222 29 13 C29.33 13.66 29.66 14.32 30 15 C27.03 14.34 24.06 13.68 21 13 C21 12.34 21 11.68 21 11 C17.13543594 8.07229995 13.71967839 7.63534132 9 7 C8.67 6.34 8.34 5.68 8 5 C6.68 5 5.36 5 4 5 C4 4.34 4 3.68 4 3 C2.68 3 1.36 3 0 3 C0 2.01 0 1.02 0 0 Z " fill="#B6DEC4" transform="translate(336,41)"/>
<path d="M0 0 C0.99 0.33 1.98 0.66 3 1 C2.0479279 2.00596297 1.08812654 3.00461563 0.125 4 C-0.40867187 4.556875 -0.94234375 5.11375 -1.4921875 5.6875 C-3 7 -3 7 -5 7 C-5 7.66 -5 8.32 -5 9 C-5.99 9.33 -6.98 9.66 -8 10 C-8.845625 10.845625 -9.69125 11.69125 -10.5625 12.5625 C-11.366875 13.366875 -12.17125 14.17125 -13 15 C-13.66 15 -14.32 15 -15 15 C-15.268125 15.598125 -15.53625 16.19625 -15.8125 16.8125 C-17.47370091 19.87260694 -18.81204519 21.62664277 -22.1875 22.6875 C-22.785625 22.790625 -23.38375 22.89375 -24 23 C-22.43897024 18.79798279 -19.31503536 16.48396693 -15.9375 13.75 C-14.76485378 12.78088034 -13.59298354 11.81082101 -12.421875 10.83984375 C-11.84373047 10.36272949 -11.26558594 9.88561523 -10.66992188 9.39404297 C-7.0314782 6.35668721 -3.51930473 3.17373993 0 0 Z " fill="#B6DCC3" transform="translate(403,407)"/>
<path d="M0 0 C0.625 1.875 0.625 1.875 1 4 C0.34 4.66 -0.32 5.32 -1 6 C-1.33 5.34 -1.66 4.68 -2 4 C-6.42283352 3.61470779 -8.79813033 4.73823686 -12.5625 7 C-16.25912986 9.21490166 -17.58361922 10 -22 10 C-22 9.34 -22 8.68 -22 8 C-3.75 -1.125 -3.75 -1.125 0 0 Z " fill="#B3DBC2" transform="translate(330,337)"/>
<path d="M0 0 C5.47734269 1.64141866 10.48872351 4.02668532 15.625 6.5 C16.470625 6.90347656 17.31625 7.30695313 18.1875 7.72265625 C21.80695068 9.45245681 25.41573796 11.19825291 29 13 C26 14 26 14 23.546875 13.00390625 C22.16242188 12.29041016 22.16242188 12.29041016 20.75 11.5625 C16.12128173 9.33727289 13.08009968 8.43554448 8 9 C7.979375 8.401875 7.95875 7.80375 7.9375 7.1875 C7.09543384 4.56685398 7.09543384 4.56685398 3.4375 3.25 C2.303125 2.8375 1.16875 2.425 0 2 C0 1.34 0 0.68 0 0 Z " fill="#B9DCC3" transform="translate(145,444)"/>
<path d="M0 0 C0.33 0.66 0.66 1.32 1 2 C-7.91 2.66 -16.82 3.32 -26 4 C-26.33 3.01 -26.66 2.02 -27 1 C-18.02243049 -0.3300103 -9.05168034 -0.08788039 0 0 Z " fill="#BBE1C6" transform="translate(176,193)"/>
<path d="M0 0 C0.66 0.33 1.32 0.66 2 1 C1.401875 1.680625 0.80375 2.36125 0.1875 3.0625 C-2.17330091 6.23271837 -3.45665748 9.37650016 -5 13 C-6.5625 14.75 -6.5625 14.75 -8 16 C-8.66 16.99 -9.32 17.98 -10 19 C-9.67 19.66 -9.34 20.32 -9 21 C-10.65 22.65 -12.3 24.3 -14 26 C-15 23 -15 23 -13.84765625 20.46875 C-9.57660857 13.3659136 -5.00654597 6.60603987 0 0 Z " fill="#B3DABD" transform="translate(64,119)"/>
<path d="M0 0 C0 0.66 0 1.32 0 2 C-0.71019287 2.14099121 -1.42038574 2.28198242 -2.15209961 2.42724609 C-5.4141081 3.07545382 -8.67580508 3.72521635 -11.9375 4.375 C-13.05447266 4.59671875 -14.17144531 4.8184375 -15.32226562 5.046875 C-21.56629182 6.29201805 -27.79086839 7.59092878 -34 9 C-34 8.34 -34 7.68 -34 7 C-32.35 7 -30.7 7 -29 7 C-29 6.34 -29 5.68 -29 5 C-19.44410367 3.01960297 -19.44410367 3.01960297 -14.9375 2.4375 C-12.11687541 2.31528459 -12.11687541 2.31528459 -11 1 C-9.52738281 0.76657144 -8.04598558 0.58703535 -6.5625 0.4375 C-5.75941406 0.35371094 -4.95632812 0.26992188 -4.12890625 0.18359375 C-2 0 -2 0 0 0 Z " fill="#BBDFC6" transform="translate(219,38)"/>
<path d="M0 0 C0.33 0 0.66 0 1 0 C1 11.88 1 23.76 1 36 C-0.485 36.495 -0.485 36.495 -2 37 C-1.85989315 32.52063524 -1.71187647 28.04156447 -1.5625 23.5625 C-1.52318359 22.30244141 -1.48386719 21.04238281 -1.44335938 19.74414062 C-1.21821306 13.11098393 -0.85241566 6.5829411 0 0 Z " fill="#B8EDDF" transform="translate(214,92)"/>
<path d="M0 0 C0.66 0.66 1.32 1.32 2 2 C1.13117188 2.85722656 0.26234375 3.71445313 -0.6328125 4.59765625 C-9.12962742 13.00824686 -9.12962742 13.00824686 -17 22 C-17 19 -17 19 -16 17 C-15.34 17 -14.68 17 -14 17 C-13.566875 15.576875 -13.566875 15.576875 -13.125 14.125 C-12 11 -12 11 -10 9 C-9.01 9 -8.02 9 -7 9 C-6.773125 8.2575 -6.54625 7.515 -6.3125 6.75 C-4.75592468 3.48860409 -2.91481146 2.07105025 0 0 Z " fill="#B7DDC1" transform="translate(102,92)"/>
<path d="M0 0 C-1.58358642 3.16717283 -2.45263699 4.73268318 -5.6875 6.3125 C-6.450625 6.539375 -7.21375 6.76625 -8 7 C-8.12375 8.299375 -8.2475 9.59875 -8.375 10.9375 C-8.5859375 13.15234375 -8.5859375 13.15234375 -9 15 C-9.66 15.33 -10.32 15.66 -11 16 C-11.62552427 6.07849011 -11.62552427 6.07849011 -9.1875 1.875 C-5.92382134 -0.92243885 -3.98086179 -1.23543987 0 0 Z " fill="#B6E2C4" transform="translate(233,73)"/>
<path d="M0 0 C7.59 0 15.18 0 23 0 C23 0.99 23 1.98 23 3 C20.10391407 3.05413245 17.20884805 3.09373641 14.3125 3.125 C13.08756836 3.15013672 13.08756836 3.15013672 11.83789062 3.17578125 C7.42907071 3.2114802 4.01268424 3.07580814 0 1 C0 0.67 0 0.34 0 0 Z " fill="#BDDBC6" transform="translate(234,71)"/>
<path d="M0 0 C0 0.66 0 1.32 0 2 C-0.7425 2.144375 -1.485 2.28875 -2.25 2.4375 C-4.85217604 2.92853696 -4.85217604 2.92853696 -6.765625 3.5234375 C-9.70369801 4.15008944 -12.49743022 4.17028343 -15.5 4.1875 C-16.6240625 4.20167969 -17.748125 4.21585938 -18.90625 4.23046875 C-21.93445104 4.00488307 -23.39707447 3.4200014 -26 2 C-22.60454455 1.66274171 -19.2085816 1.33088879 -15.8125 1 C-14.85279297 0.90460938 -13.89308594 0.80921875 -12.90429688 0.7109375 C-11.97294922 0.62070313 -11.04160156 0.53046875 -10.08203125 0.4375 C-9.22843018 0.35371094 -8.3748291 0.26992187 -7.49536133 0.18359375 C-4.98711079 -0.00094831 -2.51404403 -0.03149938 0 0 Z " fill="#B7DEC3" transform="translate(201,178)"/>
<path d="M0 0 C3.25696479 0.41755959 4.63443291 0.63443291 7 3 C5.02 3.99 5.02 3.99 3 5 C2.67 4.67 2.34 4.34 2 4 C-0.96837781 8.02167317 -2.52389341 11.00088076 -3 16 C-3.33 16 -3.66 16 -4 16 C-4.31503541 10.01432727 -3.72729876 6.34550556 -1 1 C-0.67 0.67 -0.34 0.34 0 0 Z " fill="#B6DEC3" transform="translate(171,336)"/>
<path d="M0 0 C7.26 0 14.52 0 22 0 C19.56085508 2.43914492 18.78553569 2.28662523 15.4296875 2.4140625 C14.08583984 2.47207031 14.08583984 2.47207031 12.71484375 2.53125 C11.77769531 2.5621875 10.84054688 2.593125 9.875 2.625 C8.93011719 2.66367187 7.98523438 2.70234375 7.01171875 2.7421875 C4.67467625 2.83661346 2.33764499 2.92218394 0 3 C0 2.01 0 1.02 0 0 Z " fill="#B8DFC4" transform="translate(244,471)"/>
<path d="M0 0 C1.92115085 1.07536117 3.83675274 2.16063912 5.75 3.25 C7.35101563 4.15492187 7.35101563 4.15492187 8.984375 5.078125 C11.74387579 6.83677058 13.80562099 8.59257448 16 11 C13.69 11.66 11.38 12.32 9 13 C8.79375 12.071875 8.5875 11.14375 8.375 10.1875 C6.63177279 6.14638238 4.87293299 5.81286225 1 4 C0.31640625 1.9140625 0.31640625 1.9140625 0 0 Z " fill="#B6DEC2" transform="translate(297,89)"/>
<path d="M0 0 C0.99 0.33 1.98 0.66 3 1 C2.67 1.33 2.34 1.66 2 2 C4.64 2.66 7.28 3.32 10 4 C10 4.33 10 4.66 10 5 C5.38 5.66 0.76 6.32 -4 7 C-4.33 6.01 -4.66 5.02 -5 4 C-2.6875 1.9375 -2.6875 1.9375 0 0 Z " fill="#B4E5C3" transform="translate(374,264)"/>
<path d="M0 0 C1.258125 -0.020625 2.51625 -0.04125 3.8125 -0.0625 C4.52019531 -0.07410156 5.22789062 -0.08570313 5.95703125 -0.09765625 C8 0 8 0 11 1 C12.99961564 1.03920815 15.00049364 1.04443347 17 1 C17.33 1.99 17.66 2.98 18 4 C15.56212615 3.8590651 13.12482147 3.71245458 10.6875 3.5625 C9.65206055 3.50352539 9.65206055 3.50352539 8.59570312 3.44335938 C5.52838465 3.25072585 2.93031848 2.97677283 0 2 C0 1.34 0 0.68 0 0 Z " fill="#B6E3C7" transform="translate(221,480)"/>
<path d="M0 0 C1.75570312 0.04060547 1.75570312 0.04060547 3.546875 0.08203125 C4.43890625 0.11683594 5.3309375 0.15164063 6.25 0.1875 C6.25 0.5175 6.25 0.8475 6.25 1.1875 C5.64671875 1.21328125 5.0434375 1.2390625 4.421875 1.265625 C-0.75302206 1.60601281 -0.75302206 1.60601281 -5.25 4 C-6.71332668 6.13401807 -7.38644809 7.6426366 -7.75 10.1875 C-10.10953094 7.82796906 -10.24141413 6.40854383 -10.75 3.1875 C-7.26391463 -0.10012011 -4.6928191 -0.14078457 0 0 Z " fill="#BBDDC7" transform="translate(243.75,375.8125)"/>
<path d="M0 0 C0.33 0.66 0.66 1.32 1 2 C-0.3125 4 -0.3125 4 -2 6 C-2.99 6 -3.98 6 -5 6 C-5.2475 6.5775 -5.495 7.155 -5.75 7.75 C-7.16683317 10.3002997 -8.87627537 12.01785701 -11 14 C-11.99 13.67 -12.98 13.34 -14 13 C-9.55618306 8.41283413 -4.79771501 4.21237287 0 0 Z " fill="#BFE2C8" transform="translate(342,103)"/>
<path d="M0 0 C0 0.66 0 1.32 0 2 C1.3921875 2.185625 1.3921875 2.185625 2.8125 2.375 C6 3 6 3 9 5 C11.32108669 5.70812814 13.65377147 6.38024152 16 7 C15.67 7.66 15.34 8.32 15 9 C8.07 6.69 1.14 4.38 -6 2 C-3 0 -3 0 0 0 Z " fill="#B9DEC1" transform="translate(173,467)"/>
<path d="M0 0 C5.48001528 -0.33551114 9.16658354 0.35530043 14 3 C18 7.20512821 18 7.20512821 18 10 C17.34 10 16.68 10 16 10 C16 9.01 16 8.02 16 7 C15.01 7.33 14.02 7.66 13 8 C12.67 7.34 12.34 6.68 12 6 C12.33 5.34 12.66 4.68 13 4 C10.03 3.67 7.06 3.34 4 3 C4 2.34 4 1.68 4 1 C2.68 0.67 1.36 0.34 0 0 Z " fill="#B6DDC1" transform="translate(260,71)"/>
<path d="M0 0 C0.66 0.66 1.32 1.32 2 2 C-0.28415321 4.17470605 -2.57850911 6.33833245 -4.875 8.5 C-5.85146484 9.43005859 -5.85146484 9.43005859 -6.84765625 10.37890625 C-7.47285156 10.96542969 -8.09804688 11.55195313 -8.7421875 12.15625 C-9.3182373 12.70087891 -9.89428711 13.24550781 -10.48779297 13.80664062 C-12 15 -12 15 -14 15 C-13.8125 13.1875 -13.8125 13.1875 -13 11 C-10.6875 9.375 -10.6875 9.375 -8 8 C-6.8553125 7.4121875 -6.8553125 7.4121875 -5.6875 6.8125 C-5.130625 6.544375 -4.57375 6.27625 -4 6 C-4 5.34 -4 4.68 -4 4 C-3.34 4 -2.68 4 -2 4 C-1.34 2.68 -0.68 1.36 0 0 Z " fill="#BADEC3" transform="translate(316,367)"/>
<path d="M0 0 C5.73842251 -0.20413361 10.60539047 -0.27141454 16 2 C16 2.66 16 3.32 16 4 C10.06997733 4.37851209 5.52760359 3.10575375 0 1 C0 0.67 0 0.34 0 0 Z " fill="#B7E2C6" transform="translate(208,339)"/>
<path d="M0 0 C-2.39602374 2.39602374 -3.65161648 2.48831477 -6.9375 3.0625 C-9.75113142 3.56389824 -12.28110509 4.0937017 -15 5 C-16.21869929 7.50447516 -16.21869929 7.50447516 -17 10 C-17.33 10 -17.66 10 -18 10 C-18 8.02 -18 6.04 -18 4 C-11.71546794 0.67202085 -7.11341265 -0.45164525 0 0 Z " fill="#B8E0C3" transform="translate(289,214)"/>
<path d="M0 0 C-1 2 -1 2 -3.43359375 2.81640625 C-4.92052734 3.18572266 -4.92052734 3.18572266 -6.4375 3.5625 C-10.32254047 4.50185245 -10.32254047 4.50185245 -14 6 C-14.99 5.34 -15.98 4.68 -17 4 C-11.06561592 0.92291196 -6.70126536 -0.48736475 0 0 Z " fill="#BDDEC4" transform="translate(139,185)"/>
<path d="M0 0 C-1.32 0.33 -2.64 0.66 -4 1 C-4 1.66 -4 2.32 -4 3 C-5.74233825 3.72697561 -7.49427345 4.43098244 -9.25 5.125 C-10.22453125 5.51945312 -11.1990625 5.91390625 -12.203125 6.3203125 C-15 7 -15 7 -17.359375 6.1171875 C-17.90078125 5.74851562 -18.4421875 5.37984375 -19 5 C-16.21142 3.96995707 -13.41969712 2.95069003 -10.625 1.9375 C-9.8309375 1.64294922 -9.036875 1.34839844 -8.21875 1.04492188 C-7.45820313 0.77099609 -6.69765625 0.49707031 -5.9140625 0.21484375 C-5.2123291 -0.04176025 -4.5105957 -0.29836426 -3.78759766 -0.56274414 C-2 -1 -2 -1 0 0 Z " fill="#BADBC3" transform="translate(182,35)"/>
<path d="M0 0 C2 3 2 3 3.3125 5.8125 C5.61239796 10.15675171 8.51875199 13.51875199 12 17 C9 17 9 17 7.31640625 15.49609375 C3.65013399 11.19291896 0.61319969 7.0173434 -2 2 C-1.34 1.34 -0.68 0.68 0 0 Z " fill="#BADDC4" transform="translate(147,294)"/>
<path d="M0 0 C1.65 0 3.3 0 5 0 C4.34 0.66 3.68 1.32 3 2 C2.17887487 4.50636622 1.53704728 7.03625656 0.87890625 9.58984375 C-0.04019175 12.1102147 -0.97262162 13.28887006 -3 15 C-2.69052329 13.06201479 -2.37731166 11.12462574 -2.0625 9.1875 C-1.88847656 8.10855469 -1.71445313 7.02960938 -1.53515625 5.91796875 C-1 3 -1 3 0 0 Z " fill="#BBE4C9" transform="translate(140,99)"/>
<path d="M0 0 C4.26501943 -0.36557309 6.66042774 0.28381456 10 3 C10.48828125 6.13671875 10.48828125 6.13671875 10.3125 9.6875 C10.26738281 10.86699219 10.22226563 12.04648438 10.17578125 13.26171875 C10.11777344 14.16535156 10.05976563 15.06898438 10 16 C9.67 16 9.34 16 9 16 C8.91363281 15.40832031 8.82726562 14.81664062 8.73828125 14.20703125 C7.7454795 8.62365993 6.52151196 5.73024737 2 2 C1.34 1.34 0.68 0.68 0 0 Z " fill="#BADCC4" transform="translate(220,216)"/>
<path d="M0 0 C-2.36775721 2.36775721 -4.29711338 2.99896496 -7.4375 4.125 C-8.40558594 4.47820313 -9.37367188 4.83140625 -10.37109375 5.1953125 C-13 6 -13 6 -16 6 C-15.67 5.01 -15.34 4.02 -15 3 C-9.88386385 0.57656709 -5.64576367 -0.10652384 0 0 Z " fill="#BCE0C4" transform="translate(183,47)"/>
<path d="M0 0 C0.33 0.66 0.66 1.32 1 2 C0.0625 4.625 0.0625 4.625 -1 7 C-2.65 6.67 -4.3 6.34 -6 6 C-6.33 6.99 -6.66 7.98 -7 9 C-7.99 8.67 -8.98 8.34 -10 8 C-6.97727468 4.74475735 -3.74281699 2.38179263 0 0 Z " fill="#B5DBC0" transform="translate(374,431)"/>
<path d="M0 0 C0.8971875 0.309375 0.8971875 0.309375 1.8125 0.625 C-0.11696028 1.99207496 -2.05460477 3.34344954 -4 4.6875 C-5.61841797 5.81865234 -5.61841797 5.81865234 -7.26953125 6.97265625 C-8.71392578 7.79056641 -8.71392578 7.79056641 -10.1875 8.625 C-11.1775 8.295 -12.1675 7.965 -13.1875 7.625 C-11.91742786 6.6656581 -10.64641081 5.70756706 -9.375 4.75 C-8.66730469 4.21632813 -7.95960938 3.68265625 -7.23046875 3.1328125 C-2.42296372 -0.41536521 -2.42296372 -0.41536521 0 0 Z " fill="#B7DEC1" transform="translate(332.1875,319.375)"/>
<path d="M0 0 C0.99 0.33 1.98 0.66 3 1 C-2.0940919 7.70459519 -2.0940919 7.70459519 -5.875 8.9375 C-6.57625 8.958125 -7.2775 8.97875 -8 9 C-7.8125 7.125 -7.8125 7.125 -7 5 C-5.35448038 4.28272222 -3.68577711 3.61674772 -2 3 C-1.34 2.01 -0.68 1.02 0 0 Z " fill="#B8DFC4" transform="translate(298,382)"/>
<path d="M0 0 C1.32 0.33 2.64 0.66 4 1 C1.03 4.63 -1.94 8.26 -5 12 C-5.33 11.01 -5.66 10.02 -6 9 C-4.78515625 6.73828125 -4.78515625 6.73828125 -3.0625 4.3125 C-2.49660156 3.50425781 -1.93070313 2.69601562 -1.34765625 1.86328125 C-0.90292969 1.24839844 -0.45820313 0.63351562 0 0 Z " fill="#BBE1C5" transform="translate(225,368)"/>
<path d="M0 0 C0.33 0 0.66 0 1 0 C1 7.26 1 14.52 1 22 C-1 20 -1 20 -1.16015625 17.50390625 C-1.12792969 16.53324219 -1.09570312 15.56257812 -1.0625 14.5625 C-0.96145876 11.263284 -0.94796368 9.15610895 -2 6 C-1.0625 2.8125 -1.0625 2.8125 0 0 Z " fill="#B4DCBF" transform="translate(364,230)"/>
<path d="M0 0 C0.33 0.99 0.66 1.98 1 3 C1.66 3 2.32 3 3 3 C3 3.66 3 4.32 3 5 C3.928125 5.12375 4.85625 5.2475 5.8125 5.375 C9 6 9 6 12 8 C8.36257951 8.93050292 6.62301488 9.30458505 3.1875 7.625 C1 6 1 6 0 5 C-0.04063832 3.33382885 -0.042721 1.66611905 0 0 Z " fill="#BBE0C7" transform="translate(120,192)"/>
<path d="M0 0 C7.59 0 15.18 0 23 0 C23 0.33 23 0.66 23 1 C22.04738281 1.06058594 21.09476563 1.12117187 20.11328125 1.18359375 C18.85902344 1.26738281 17.60476562 1.35117188 16.3125 1.4375 C15.07113281 1.51871094 13.82976562 1.59992188 12.55078125 1.68359375 C9.10891065 1.8882043 9.10891065 1.8882043 6.29296875 2.72265625 C4 3 4 3 0 0 Z " fill="#BBD5C2" transform="translate(211,177)"/>
<path d="M0 0 C0.99 0.66 1.98 1.32 3 2 C1.38405168 4.04119788 -0.2856382 6.04072937 -2 8 C-2.66 8 -3.32 8 -4 8 C-4 8.66 -4 9.32 -4 10 C-4.99 9.67 -5.98 9.34 -7 9 C-4.69 6.03 -2.38 3.06 0 0 Z " fill="#B4DBC1" transform="translate(72,108)"/>
<path d="M0 0 C0.99 0 1.98 0 3 0 C3 1.98 3 3.96 3 6 C3.99 6.33 4.98 6.66 6 7 C6.33 7.99 6.66 8.98 7 10 C3.22199132 9.46028447 1.28423889 8.04565185 -1 5 C-0.75 2.25 -0.75 2.25 0 0 Z " fill="#B7DCC2" transform="translate(264,355)"/>
<path d="M0 0 C0.99 0.33 1.98 0.66 3 1 C3 1.66 3 2.32 3 3 C3.66 3 4.32 3 5 3 C5.28875 3.78375 5.5775 4.5675 5.875 5.375 C6.84912254 8.09671632 6.84912254 8.09671632 9 10 C8.34 10.66 7.68 11.32 7 12 C5.82767315 10.3790787 4.6622923 8.75313167 3.5 7.125 C2.8503125 6.22007812 2.200625 5.31515625 1.53125 4.3828125 C0 2 0 2 0 0 Z " fill="#BCDEC4" transform="translate(265,259)"/>
<path d="M0 0 C0.96808594 -0.01675781 1.93617188 -0.03351563 2.93359375 -0.05078125 C5.5625 0.3125 5.5625 0.3125 8.5625 3.3125 C3.2825 2.9825 -1.9975 2.6525 -7.4375 2.3125 C-4.83563892 -0.28936108 -3.61395645 0.01439823 0 0 Z " fill="#BEE5C9" transform="translate(331.4375,192.6875)"/>
<path d="M0 0 C-1.11328125 1.48828125 -1.11328125 1.48828125 -3 3 C-5.91796875 3.29296875 -5.91796875 3.29296875 -9.1875 3.1875 C-10.27417969 3.16042969 -11.36085937 3.13335937 -12.48046875 3.10546875 C-13.72763672 3.05326172 -13.72763672 3.05326172 -15 3 C-11.07677056 -0.92322944 -5.25785342 -0.10515707 0 0 Z " fill="#BBDFC8" transform="translate(167,181)"/>
<path d="M0 0 C1.3921875 0.2784375 1.3921875 0.2784375 2.8125 0.5625 C6.01343771 1.24123881 6.01343771 1.24123881 9 0 C8.67 1.32 8.34 2.64 8 4 C5.08517222 4.80967438 3.53886783 5.21845993 0.6875 4.0625 C0.130625 3.711875 -0.42625 3.36125 -1 3 C-0.67 2.01 -0.34 1.02 0 0 Z " fill="#B6DFC1" transform="translate(214,129)"/>
<path d="M0 0 C0 3.1267311 -0.27057248 5.0882156 -2.25 7.5625 C-4.354338 9.29106336 -6.44367821 10.10183288 -9 11 C-7.59155282 7.78475695 -5.89655214 5.67816132 -3.375 3.25 C-2.74335937 2.63640625 -2.11171875 2.0228125 -1.4609375 1.390625 C-0.73777344 0.70226562 -0.73777344 0.70226562 0 0 Z " fill="#B8DAC3" transform="translate(93,85)"/>
<path d="M0 0 C0.66 0 1.32 0 2 0 C2.33 2.31 2.66 4.62 3 7 C1.35 7.33 -0.3 7.66 -2 8 C-1.125 2.25 -1.125 2.25 0 0 Z " fill="#B9DCC2" transform="translate(362,169)"/>
<path d="M0 0 C0.33 0 0.66 0 1 0 C1.76681614 7.66816143 1.76681614 7.66816143 -0.11328125 10.93359375 C-1.5 12.5625 -1.5 12.5625 -4 15 C-4.6875 13.1875 -4.6875 13.1875 -5 11 C-3.625 9.25 -3.625 9.25 -2 8 C-1.67 8 -1.34 8 -1 8 C-0.67 5.36 -0.34 2.72 0 0 Z " fill="#BADDC3" transform="translate(332,344)"/>
<path d="M0 0 C0.66 0 1.32 0 2 0 C2 1.98 2 3.96 2 6 C-1.63 6 -5.26 6 -9 6 C-8.67 5.34 -8.34 4.68 -8 4 C-6.02 4 -4.04 4 -2 4 C-1.34 2.68 -0.68 1.36 0 0 Z " fill="#BDE0C6" transform="translate(391,287)"/>
<path d="M0 0 C0.66 0 1.32 0 2 0 C2.33 1.98 2.66 3.96 3 6 C4.32 6 5.64 6 7 6 C7 7.32 7 8.64 7 10 C4.97954558 9.39816251 2.97888961 8.72693904 1 8 C-0.35439668 5.29120665 -0.06501451 2.99066732 0 0 Z " fill="#BEE2CA" transform="translate(125,221)"/>
<path d="M0 0 C-3.4766338 2.14336161 -6.21229195 2.21277626 -10.25 2.125 C-11.32765625 2.10695312 -12.4053125 2.08890625 -13.515625 2.0703125 C-14.33546875 2.04710937 -15.1553125 2.02390625 -16 2 C-16 1.67 -16 1.34 -16 1 C-10.28728907 -1.0662997 -5.96345767 -1.0006709 0 0 Z " fill="#B6E7CC" transform="translate(198,168)"/>
<path d="M0 0 C0 0.66 0 1.32 0 2 C-1.41396902 2.50757862 -2.83131729 3.00574925 -4.25 3.5 C-5.43335938 3.91765625 -5.43335938 3.91765625 -6.640625 4.34375 C-9 5 -9 5 -13 5 C-13 4.34 -13 3.68 -13 3 C-11.39743892 2.49487756 -9.79288208 1.99608373 -8.1875 1.5 C-7.29417969 1.2215625 -6.40085937 0.943125 -5.48046875 0.65625 C-3 0 -3 0 0 0 Z " fill="#B7DDC2" transform="translate(319,460)"/>
<path d="M0 0 C3.375 -0.125 3.375 -0.125 7 0 C7.66 0.66 8.32 1.32 9 2 C8.625 4.125 8.625 4.125 8 6 C8 5.34 8 4.68 8 4 C5.69 3.67 3.38 3.34 1 3 C0.67 2.01 0.34 1.02 0 0 Z " fill="#B5DDC3" transform="translate(365,217)"/>
<path d="M0 0 C4.8333472 -0.08333357 9.23692563 0.04738513 14 1 C10.59492291 3.27005139 9.78521579 3.18320175 5.875 2.75 C4.98554688 2.66234375 4.09609375 2.5746875 3.1796875 2.484375 C2.10074219 2.24460938 2.10074219 2.24460938 1 2 C0.67 1.34 0.34 0.68 0 0 Z " fill="#B9E1C5" transform="translate(311,179)"/>
<path d="M0 0 C0.66 0.33 1.32 0.66 2 1 C-0.59405119 3.87198525 -2.20339094 5.2881358 -6 6 C-7.3479743 6.63654342 -8.68596724 7.29605388 -10 8 C-10.33 7.34 -10.66 6.68 -11 6 C-9.21385682 4.96953278 -7.42089982 3.95086764 -5.625 2.9375 C-4.62726563 2.36902344 -3.62953125 1.80054688 -2.6015625 1.21484375 C-1.74304688 0.81394531 -0.88453125 0.41304687 0 0 Z " fill="#B6DDC3" transform="translate(142,50)"/>
<path d="M0 0 C1.60568666 0.28317926 3.20952047 0.57687791 4.8125 0.875 C6.15248047 1.11863281 6.15248047 1.11863281 7.51953125 1.3671875 C10 2 10 2 13 4 C9.61725734 5.12758089 8.23221777 4.81750262 4.8125 4.0625 C3.91144531 3.86785156 3.01039063 3.67320313 2.08203125 3.47265625 C1.39496094 3.31667969 0.70789063 3.16070312 0 3 C0 2.01 0 1.02 0 0 Z " fill="#BDDFC7" transform="translate(313,33)"/>
<path d="M0 0 C2.3125 0.1875 2.3125 0.1875 4 1 C3.01 1.495 3.01 1.495 2 2 C0.86649466 4.01669827 0.86649466 4.01669827 0 6 C-1.65 5.67 -3.3 5.34 -5 5 C-2.75 2.4375 -2.75 2.4375 0 0 Z " fill="#B8E0C5" transform="translate(116,66)"/>
<path d="M0 0 C0.66 0.33 1.32 0.66 2 1 C-0.99481865 5.22797927 -0.99481865 5.22797927 -3 7 C-6.3125 7.375 -6.3125 7.375 -9 7 C-8.67 6.01 -8.34 5.02 -8 4 C-6.35 4 -4.7 4 -3 4 C-2.67 3.01 -2.34 2.02 -2 1 C-1.34 0.67 -0.68 0.34 0 0 Z " fill="#B7D8C2" transform="translate(214,383)"/>
<path d="M0 0 C0.33 0.66 0.66 1.32 1 2 C-0.73397418 5.65047197 -2.19333016 7.55609075 -6 9 C-5.52797514 4.75177626 -3.03344482 2.80010291 0 0 Z " fill="#B6DEBE" transform="translate(260,283)"/>
<path d="M0 0 C0.66 0 1.32 0 2 0 C5.57142857 7.28571429 5.57142857 7.28571429 4 12 C2.09681116 9.14521674 1.5380901 7.58058692 0.875 4.3125 C0.70742188 3.50425781 0.53984375 2.69601563 0.3671875 1.86328125 C0.24601562 1.24839844 0.12484375 0.63351563 0 0 Z " fill="#BADFC7" transform="translate(259,243)"/>
<path d="M0 0 C-0.875 3.875 -0.875 3.875 -2 5 C-3.99958364 5.04080783 -6.00045254 5.04254356 -8 5 C-8 4.34 -8 3.68 -8 3 C-5.09451118 0.95830515 -3.59857954 0 0 0 Z " fill="#B6E0C1" transform="translate(374,225)"/>
<path d="M0 0 C1.32 0.66 2.64 1.32 4 2 C3.236875 2.4125 2.47375 2.825 1.6875 3.25 C-0.9366642 4.95875809 -2.30321976 6.41017753 -4 9 C-4.33 7.35 -4.66 5.7 -5 4 C-3.35 2.68 -1.7 1.36 0 0 Z " fill="#B9DEC3" transform="translate(154,215)"/>
<path d="M0 0 C-0.33 0.66 -0.66 1.32 -1 2 C-3.64 1.67 -6.28 1.34 -9 1 C-9 0.01 -9 -0.98 -9 -2 C-5.08496436 -3.59501452 -3.33516624 -2.31608767 0 0 Z " fill="#BCE3C8" transform="translate(356,174)"/>
<path d="M0 0 C3.93548431 3.06093224 6.68116787 5.49115974 9 10 C8.01 10 7.02 10 6 10 C5.67 9.01 5.34 8.02 5 7 C4.34 7 3.68 7 3 7 C3 6.01 3 5.02 3 4 C2.34 4 1.68 4 1 4 C0.67 2.68 0.34 1.36 0 0 Z " fill="#B2DDC7" transform="translate(314,101)"/>
<path d="M0 0 C-3.96 3.465 -3.96 3.465 -8 7 C-8.33 6.01 -8.66 5.02 -9 4 C-8.34 4 -7.68 4 -7 4 C-6.87625 3.360625 -6.7525 2.72125 -6.625 2.0625 C-6.41875 1.381875 -6.2125 0.70125 -6 0 C-4 -1 -4 -1 0 0 Z " fill="#B9DCC1" transform="translate(117,83)"/>
<path d="M0 0 C2.64824722 0.35787125 4.55535876 0.68239911 6.75 2.25 C8.31760089 4.44464124 8.64212875 6.35175278 9 9 C7.87105124 8.06725891 6.74699124 7.12859878 5.625 6.1875 C4.99851562 5.66542969 4.37203125 5.14335937 3.7265625 4.60546875 C2 3 2 3 0 0 Z " fill="#B5D9BF" transform="translate(88,416)"/>
<path d="M0 0 C0.66 0 1.32 0 2 0 C0.92598892 2.91517292 0.22189824 4.77810176 -2 7 C-2.69748583 8.31747324 -3.36959957 9.64914193 -4 11 C-4 10.01 -4 9.02 -4 8 C-4.66 8 -5.32 8 -6 8 C-5.67 7.01 -5.34 6.02 -5 5 C-4.01 4.67 -3.02 4.34 -2 4 C-0.79117904 1.99983534 -0.79117904 1.99983534 0 0 Z " fill="#BBDFC4" transform="translate(264,382)"/>
<path d="M0 0 C0.66 0.33 1.32 0.66 2 1 C2 1.66 2 2.32 2 3 C3.32 3.66 4.64 4.32 6 5 C5.67 6.32 5.34 7.64 5 9 C3.02 6.69 1.04 4.38 -1 2 C-0.67 1.34 -0.34 0.68 0 0 Z " fill="#B9DFC4" transform="translate(169,352)"/>
<path d="M0 0 C0.5775 0.61875 1.155 1.2375 1.75 1.875 C3.80249821 3.81347053 5.43366582 4.90014249 8 6 C6.02 6.66 4.04 7.32 2 8 C0.23537317 4.91190305 0 3.76687864 0 0 Z " fill="#B5E0BF" transform="translate(323,112)"/>
<path d="M0 0 C2.64 0.33 5.28 0.66 8 1 C8.33 2.98 8.66 4.96 9 7 C7.4972763 6.02501855 5.99788037 5.04490611 4.5 4.0625 C3.6646875 3.51722656 2.829375 2.97195312 1.96875 2.41015625 C1.3190625 1.94480469 0.669375 1.47945313 0 1 C0 0.67 0 0.34 0 0 Z " fill="#B8E2C9" transform="translate(369,72)"/>
<path d="M0 0 C3.82946843 1.45255699 5.12050295 3.42895561 7 7 C4 7 4 7 2.61328125 5.6875 C1.40885417 4.125 0.20442708 2.5625 -1 1 C-0.67 0.67 -0.34 0.34 0 0 Z " fill="#B7E1C4" transform="translate(177,361)"/>
<path d="M0 0 C3.3 0 6.6 0 10 0 C10.33 0.99 10.66 1.98 11 3 C10.01 4.485 10.01 4.485 9 6 C8.34 5.67 7.68 5.34 7 5 C7 4.01 7 3.02 7 2 C4.69 1.67 2.38 1.34 0 1 C0 0.67 0 0.34 0 0 Z " fill="#B6E1C2" transform="translate(227,355)"/>
<path d="M0 0 C-2.96178773 1.67110042 -5.37071192 2.32682752 -8.75 2.625 C-9.54921875 2.69976562 -10.3484375 2.77453125 -11.171875 2.8515625 C-11.77515625 2.90054687 -12.3784375 2.94953125 -13 3 C-8.02535093 -0.31643271 -6.03086207 -1.37065047 0 0 Z " fill="#BCDFC5" transform="translate(291,340)"/>
<path d="M0 0 C4.75 -0.125 4.75 -0.125 7 1 C7 1.66 7 2.32 7 3 C7.66 3 8.32 3 9 3 C9.33 4.32 9.66 5.64 10 7 C8.33073546 6.02526874 6.66464358 5.04510211 5 4.0625 C4.071875 3.51722656 3.14375 2.97195313 2.1875 2.41015625 C1.465625 1.94480469 0.74375 1.47945313 0 1 C0 0.67 0 0.34 0 0 Z " fill="#BAE0C3" transform="translate(167,320)"/>
<path d="M0 0 C1.17539996 0.92652701 2.34010577 1.86663387 3.5 2.8125 C4.1496875 3.33457031 4.799375 3.85664063 5.46875 4.39453125 C7 6 7 6 7 9 C2.36285097 7.53563715 2.36285097 7.53563715 0.6875 5.0625 C0 3 0 3 0 0 Z " fill="#B5DABF" transform="translate(154,259)"/>
<path d="M0 0 C1.43739513 -0.02712066 2.87493863 -0.04645067 4.3125 -0.0625 C5.51326172 -0.07990234 5.51326172 -0.07990234 6.73828125 -0.09765625 C9 0 9 0 12 1 C12 1.66 12 2.32 12 3 C10.37419034 2.88601335 8.74932843 2.75844341 7.125 2.625 C6.22007812 2.55539063 5.31515625 2.48578125 4.3828125 2.4140625 C2 2 2 2 0 0 Z " fill="#B8E1C5" transform="translate(356,196)"/>
<path d="M0 0 C0 0.99 0 1.98 0 3 C-1.75 4.60546875 -1.75 4.60546875 -4 6.1875 C-4.7425 6.71730469 -5.485 7.24710937 -6.25 7.79296875 C-6.8275 8.19128906 -7.405 8.58960938 -8 9 C-8 8.01 -8 7.02 -8 6 C-5.46283326 3.73712156 -2.82859542 1.88573028 0 0 Z " fill="#BAE2C9" transform="translate(265,430)"/>
<path d="M0 0 C0 3 0 3 -2.5 5.6875 C-3.325 6.450625 -4.15 7.21375 -5 8 C-5.66 7.67 -6.32 7.34 -7 7 C-3.375 1.125 -3.375 1.125 0 0 Z " fill="#BBE0C6" transform="translate(345,307)"/>
<path d="M0 0 C0.825 0.309375 1.65 0.61875 2.5 0.9375 C6.39126155 2.11877583 9.96166953 2.58224168 14 3 C14 3.33 14 3.66 14 4 C8.5610835 4.21755666 4.12919186 4.10428384 -1 2 C-0.67 1.34 -0.34 0.68 0 0 Z " fill="#B8DFC6" transform="translate(330,169)"/>
<path d="M0 0 C2.475 0.495 2.475 0.495 5 1 C5 1.66 5 2.32 5 3 C6.65 3 8.3 3 10 3 C10 3.66 10 4.32 10 5 C6.7 4.34 3.4 3.68 0 3 C0 2.01 0 1.02 0 0 Z " fill="#B8E6C1" transform="translate(311,44)"/>
<path d="M0 0 C-4.95 2.475 -4.95 2.475 -10 5 C-10 4.01 -10 3.02 -10 2 C-4.5 -1.125 -4.5 -1.125 0 0 Z " fill="#BADEC5" transform="translate(373,449)"/>
<path d="M0 0 C1.65 0.33 3.3 0.66 5 1 C1.25 6.875 1.25 6.875 -1 8 C-0.67 6.35 -0.34 4.7 0 3 C0.66 3 1.32 3 2 3 C2 2.34 2 1.68 2 1 C1.34 0.67 0.68 0.34 0 0 Z " fill="#B7E1C2" transform="translate(348,298)"/>
<path d="M0 0 C0.928125 0.33 1.85625 0.66 2.8125 1 C5.92029291 2.14967004 5.92029291 2.14967004 9 2 C9 2.66 9 3.32 9 4 C5.7 3.67 2.4 3.34 -1 3 C-0.67 2.01 -0.34 1.02 0 0 Z " fill="#B7E1C2" transform="translate(362,287)"/>
<path d="M0 0 C0.6875 1.75 0.6875 1.75 1 4 C-0.43407725 6.64172124 -1.3211374 7.76724711 -4.1875 8.75 C-5.0846875 8.87375 -5.0846875 8.87375 -6 9 C-4.99202311 5.97606934 -4.31308198 5.03551214 -2 3 C-1.34 2.67 -0.68 2.34 0 2 C0 1.34 0 0.68 0 0 Z " fill="#BADBC3" transform="translate(379,192)"/>
<path d="M0 0 C3.63 0.33 7.26 0.66 11 1 C11 1.66 11 2.32 11 3 C5.71910976 3.30466674 4.422832 3.317124 0 0 Z " fill="#B9E1C3" transform="translate(333,181)"/>
<path d="M0 0 C4.28477792 2.30718811 7.72291137 4.32966073 11 8 C6.19827866 6.89191046 3.08838665 5.95313492 0 2 C0 1.34 0 0.68 0 0 Z " fill="#B6D9C0" transform="translate(378,63)"/>
<path d="M0 0 C-0.33 0.66 -0.66 1.32 -1 2 C-3.06640625 2.4140625 -3.06640625 2.4140625 -5.5625 2.625 C-6.38878906 2.69976562 -7.21507812 2.77453125 -8.06640625 2.8515625 C-9.02353516 2.92503906 -9.02353516 2.92503906 -10 3 C-10 2.34 -10 1.68 -10 1 C-6.52674819 -0.1577506 -3.63932552 -0.06866652 0 0 Z " fill="#BAE0C9" transform="translate(306,476)"/>
<path d="M0 0 C-0.99 1.485 -0.99 1.485 -2 3 C-3.9453125 3.29296875 -3.9453125 3.29296875 -6.125 3.1875 C-7.40375 3.125625 -8.6825 3.06375 -10 3 C-10.33 2.34 -10.66 1.68 -11 1 C-7.27569643 0.30710631 -3.78916254 -0.11144596 0 0 Z " fill="#BDDDC8" transform="translate(278,469)"/>
<path d="M0 0 C0.66 0.33 1.32 0.66 2 1 C1.8125 2.875 1.8125 2.875 1 5 C-1.5625 6.25 -1.5625 6.25 -4 7 C-2.79618552 4.50638429 -1.54571278 2.31856917 0 0 Z " fill="#BAE3C7" transform="translate(410,399)"/>
<path d="M0 0 C0.66 0.33 1.32 0.66 2 1 C1.67 1.99 1.34 2.98 1 4 C-2.0625 5.1875 -2.0625 5.1875 -5 6 C-5 5.01 -5 4.02 -5 3 C-2.625 1.25 -2.625 1.25 0 0 Z " fill="#B6E0C4" transform="translate(312,329)"/>
<path d="M0 0 C1.65 0 3.3 0 5 0 C5 0.66 5 1.32 5 2 C5.66 2 6.32 2 7 2 C6.67 3.32 6.34 4.64 6 6 C3.97945196 4.35830472 1.97956942 2.69088222 0 1 C0 0.67 0 0.34 0 0 Z " fill="#B6DCC4" transform="translate(159,313)"/>
<path d="M0 0 C0.33 0.99 0.66 1.98 1 3 C1.66 3.33 2.32 3.66 3 4 C2.34 6.64 1.68 9.28 1 12 C0.67 12 0.34 12 0 12 C-1.28571429 3.42857143 -1.28571429 3.42857143 0 0 Z " fill="#B1DBC0" transform="translate(36,203)"/>
<path d="M0 0 C0.66 0 1.32 0 2 0 C2 2.64 2 5.28 2 8 C1.01 8.33 0.02 8.66 -1 9 C-0.67 6.03 -0.34 3.06 0 0 Z " fill="#C0EAD7" transform="translate(213,120)"/>
<path d="M0 0 C0 0.99 0 1.98 0 3 C-2.5 4.6875 -2.5 4.6875 -5 6 C-5.99 5.34 -6.98 4.68 -8 4 C-5.36 2.68 -2.72 1.36 0 0 Z " fill="#BADEC3" transform="translate(208,86)"/>
<path d="M0 0 C1.65 0 3.3 0 5 0 C0.375 4.875 0.375 4.875 -3 6 C-2 4 -1 2 0 0 Z " fill="#B4DFC5" transform="translate(124,73)"/>
<path d="M0 0 C-5.2734375 3.22265625 -5.2734375 3.22265625 -7 4 C-7.66 3.67 -8.32 3.34 -9 3 C-6.27596221 -1.08605669 -4.4643819 -1.38549783 0 0 Z " fill="#B8E1C2" transform="translate(193,32)"/>
<path d="M0 0 C0.93972656 0.2165625 0.93972656 0.2165625 1.8984375 0.4375 C3.12433594 0.7159375 3.12433594 0.7159375 4.375 1 C5.18710938 1.185625 5.99921875 1.37125 6.8359375 1.5625 C8.95874951 2.06605239 8.95874951 2.06605239 11 2 C11 2.99 11 3.98 11 5 C9.54096742 4.69078116 8.08279278 4.37751201 6.625 4.0625 C5.81289062 3.88847656 5.00078125 3.71445312 4.1640625 3.53515625 C2 3 2 3 0 2 C0 1.34 0 0.68 0 0 Z " fill="#BDDFC5" transform="translate(190,474)"/>
<path d="M0 0 C3.16115776 1.36983503 3.9927092 1.9890638 6 5 C3.0625 4.625 3.0625 4.625 0 4 C-0.33 3.34 -0.66 2.68 -1 2 C-0.67 1.34 -0.34 0.68 0 0 Z " fill="#BAE8C4" transform="translate(99,410)"/>
<path d="M0 0 C0.99 0.33 1.98 0.66 3 1 C1.02 3.31 -0.96 5.62 -3 8 C-3.33 7.01 -3.66 6.02 -4 5 C-3.34 5 -2.68 5 -2 5 C-1.34 3.35 -0.68 1.7 0 0 Z " fill="#B8DEC3" transform="translate(324,358)"/>
<path d="M0 0 C3.375 0.25 3.375 0.25 7 1 C8.4375 3.0625 8.4375 3.0625 9 5 C5.22454612 3.90931332 2.52956528 3.0916909 0 0 Z " fill="#BBDBC5" transform="translate(178,327)"/>
<path d="M0 0 C2.31 0.66 4.62 1.32 7 2 C7 2.66 7 3.32 7 4 C4 5 4 5 1.8125 4.0625 C1.214375 3.711875 0.61625 3.36125 0 3 C0 2.01 0 1.02 0 0 Z " fill="#B8E4C1" transform="translate(278,282)"/>
<path d="M0 0 C0.53625 0.226875 1.0725 0.45375 1.625 0.6875 C0.635 1.1825 0.635 1.1825 -0.375 1.6875 C-1.365 3.1725 -1.365 3.1725 -2.375 4.6875 C-3.035 4.3575 -3.695 4.0275 -4.375 3.6875 C-6.47321215 4.08688767 -6.47321215 4.08688767 -8.375 4.6875 C-8.375 4.0275 -8.375 3.3675 -8.375 2.6875 C-2.95961538 -0.38942308 -2.95961538 -0.38942308 0 0 Z " fill="#C0E4C8" transform="translate(340.375,266.3125)"/>
<path d="M0 0 C0.99 0 1.98 0 3 0 C3 0.66 3 1.32 3 2 C3.66 2 4.32 2 5 2 C5 3.32 5 4.64 5 6 C4.01 6.33 3.02 6.66 2 7 C1.34 4.69 0.68 2.38 0 0 Z " fill="#B7E1C4" transform="translate(256,235)"/>
<path d="M0 0 C2.97 0.33 5.94 0.66 9 1 C8.01 1.495 8.01 1.495 7 2 C7 2.66 7 3.32 7 4 C4.03 3.505 4.03 3.505 1 3 C0.67 2.01 0.34 1.02 0 0 Z " fill="#B8DDC2" transform="translate(357,184)"/>
<path d="M0 0 C0.99 0.33 1.98 0.66 3 1 C-0.28804981 3.91227269 -2.59885603 5.49701212 -7 6 C-4.74259377 3.66475218 -2.7194239 1.81294927 0 0 Z " fill="#BBDDC7" transform="translate(126,59)"/>
<path d="M0 0 C2.64 1.65 5.28 3.3 8 5 C4.71023192 6.09658936 3.28696233 5.79953138 0 5 C0 3.35 0 1.7 0 0 Z " fill="#B6DCC3" transform="translate(368,56)"/>
<path d="M0 0 C2.31 0.66 4.62 1.32 7 2 C6.34 2.66 5.68 3.32 5 4 C1.875 3.625 1.875 3.625 -1 3 C-0.67 2.01 -0.34 1.02 0 0 Z " fill="#B7E0C4" transform="translate(182,460)"/>
<path d="M0 0 C2.97 0.33 5.94 0.66 9 1 C8.67 1.99 8.34 2.98 8 4 C2.25 2.25 2.25 2.25 0 0 Z " fill="#B9DCC3" transform="translate(145,458)"/>
<path d="M0 0 C0.33 0.66 0.66 1.32 1 2 C1.928125 2.2165625 1.928125 2.2165625 2.875 2.4375 C5.36710392 3.09717457 6.3329446 4.08288629 8 6 C7.67 6.66 7.34 7.32 7 8 C4.36 6.02 1.72 4.04 -1 2 C-0.67 1.34 -0.34 0.68 0 0 Z " fill="#B7D5BE" transform="translate(114,437)"/>
<path d="M0 0 C0.66 0.33 1.32 0.66 2 1 C2.33 1.99 2.66 2.98 3 4 C4.49985609 5.66710346 4.49985609 5.66710346 6 7 C5.34 7.66 4.68 8.32 4 9 C2.35 6.69 0.7 4.38 -1 2 C-0.67 1.34 -0.34 0.68 0 0 Z " fill="#BBDFC5" transform="translate(274,369)"/>
<path d="M0 0 C3.8063457 0.67170806 7.35206816 1.72746564 11 3 C11 3.33 11 3.66 11 4 C9.54054712 3.91291331 8.08234132 3.80473093 6.625 3.6875 C5.81289062 3.62949219 5.00078125 3.57148438 4.1640625 3.51171875 C2 3 2 3 0 0 Z " fill="#B7D9BF" transform="translate(187,344)"/>
<path d="M0 0 C1.32 0 2.64 0 4 0 C3.6875 1.9375 3.6875 1.9375 3 4 C2.01 4.33 1.02 4.66 0 5 C-0.5625 3.0625 -0.5625 3.0625 -1 1 C-0.67 0.67 -0.34 0.34 0 0 Z " fill="#AFE3C4" transform="translate(121,190)"/>
<path d="M0 0 C2.97 0.495 2.97 0.495 6 1 C6.33 2.32 6.66 3.64 7 5 C6.34 5 5.68 5 5 5 C5 4.34 5 3.68 5 3 C3.68 3 2.36 3 1 3 C0.67 2.01 0.34 1.02 0 0 Z " fill="#BCDEC5" transform="translate(371,187)"/>
<path d="M0 0 C3.23475448 1.61737724 4.70572021 2.47629223 7 5 C6.34 6.32 5.68 7.64 5 9 C3.35 6.03 1.7 3.06 0 0 Z " fill="#C1DFCB" transform="translate(429,132)"/>
<path d="M0 0 C0.66 0.33 1.32 0.66 2 1 C1.690625 1.598125 1.38125 2.19625 1.0625 2.8125 C-0.10209704 5.08956772 -0.10209704 5.08956772 -1 8 C-1.99 7.67 -2.98 7.34 -4 7 C-2.68 4.69 -1.36 2.38 0 0 Z " fill="#BAE1C7" transform="translate(177,109)"/>
<path d="M0 0 C3.83736322 0.95934081 4.59660228 1.23609263 7 4 C6.67 4.99 6.34 5.98 6 7 C4.02 4.69 2.04 2.38 0 0 Z " fill="#B8DCC4" transform="translate(401,98)"/>
<path d="M0 0 C-3.75 2 -3.75 2 -6 2 C-6 2.66 -6 3.32 -6 4 C-6.99 4.33 -7.98 4.66 -9 5 C-9 4.01 -9 3.02 -9 2 C-3.375 -1.125 -3.375 -1.125 0 0 Z " fill="#B6DDC2" transform="translate(159,44)"/>
<path d="M0 0 C0.8125 1.6875 0.8125 1.6875 1 4 C-1.4375 6.75 -1.4375 6.75 -4 9 C-4.33 8.01 -4.66 7.02 -5 6 C-4.360625 5.566875 -3.72125 5.13375 -3.0625 4.6875 C-0.73253997 3.08760823 -0.73253997 3.08760823 0 0 Z " fill="#B5DDBF" transform="translate(271,422)"/>
<path d="M0 0 C2.97 1.98 2.97 1.98 6 4 C5.67 4.99 5.34 5.98 5 7 C4.01 6.67 3.02 6.34 2 6 C2.33 5.34 2.66 4.68 3 4 C2.34 4 1.68 4 1 4 C0.67 2.68 0.34 1.36 0 0 Z " fill="#B9E0C7" transform="translate(105,415)"/>
<path d="M0 0 C0.99 0 1.98 0 3 0 C1.84826645 2.46800047 0.95216435 4.04783565 -1 6 C-1.99 5.67 -2.98 5.34 -4 5 C-2.1875 2.5 -2.1875 2.5 0 0 Z " fill="#BADEC5" transform="translate(424,382)"/>
<path d="M0 0 C2 3.75 2 3.75 2 6 C0.02 6.99 0.02 6.99 -2 8 C-1.125 1.125 -1.125 1.125 0 0 Z " fill="#BEE5C9" transform="translate(227,241)"/>
<path d="M0 0 C2.31 0.66 4.62 1.32 7 2 C6.67 2.99 6.34 3.98 6 5 C2.83884224 3.63016497 2.0072908 3.0109362 0 0 Z " fill="#BAE2C5" transform="translate(391,89)"/>
</svg>
