<?xml version="1.0" standalone="no"?>
<!DOCTYPE svg PUBLIC "-//W3C//DTD SVG 20010904//EN"
 "http://www.w3.org/TR/2001/REC-SVG-20010904/DTD/svg10.dtd">
<svg version="1.0" xmlns="http://www.w3.org/2000/svg"
 width="512.000000pt" height="512.000000pt" viewBox="0 0 512.000000 512.000000"
 preserveAspectRatio="xMidYMid meet">

<g transform="translate(0.000000,512.000000) scale(0.100000,-0.100000)"
fill="#000000" stroke="none">
<path d="M2404 4880 c-189 -17 -465 -79 -637 -144 -631 -237 -1157 -777 -1377
-1412 -87 -254 -125 -487 -125 -774 0 -344 56 -626 183 -930 141 -336 403
-678 697 -911 218 -172 536 -341 760 -402 33 -9 92 -25 130 -36 331 -93 825
-91 1160 4 145 41 178 51 268 87 432 170 801 461 1075 850 204 291 350 669
397 1037 21 163 21 439 0 601 -20 153 -75 379 -119 490 -49 122 -63 155 -107
245 -88 180 -170 305 -300 460 -150 179 -238 259 -499 453 -70 51 -278 160
-421 220 -81 33 -281 96 -372 116 -212 48 -492 65 -713 46z m621 -139 c327
-67 561 -163 820 -336 346 -231 588 -509 779 -892 250 -504 289 -1149 100
-1694 -110 -321 -285 -600 -529 -845 -266 -267 -521 -426 -895 -557 -363 -128
-847 -141 -1265 -36 -434 110 -873 392 -1154 741 -102 127 -110 138 -180 248
-83 132 -183 346 -223 475 -103 340 -132 673 -88 1000 57 424 221 796 496
1130 316 384 779 661 1270 760 179 37 277 44 514 40 181 -3 223 -7 355 -34z"/>
<path d="M2361 4365 l-30 -26 -3 -265 c-3 -250 -4 -266 -22 -280 -18 -12 -51
-11 -66 3 -3 3 -7 104 -10 226 l-5 222 -28 -3 c-40 -4 -136 -57 -204 -111 -53
-43 -144 -143 -169 -186 -10 -18 -17 -14 -87 47 -147 129 -227 165 -247 113
-36 -94 -55 -387 -40 -615 3 -41 1 -93 -4 -114 l-9 -39 29 6 c130 28 354 60
534 78 177 17 285 21 610 21 434 0 647 -15 960 -69 188 -32 196 -32 191 -13
-3 8 -3 125 -2 260 2 238 -5 348 -32 455 -10 43 -16 50 -39 53 -36 4 -153 -71
-234 -150 l-61 -60 -28 48 c-66 112 -259 262 -355 275 l-25 4 -5 -220 c-4
-121 -7 -221 -8 -222 -18 -19 -46 -23 -68 -8 l-24 15 0 261 0 261 -29 29 -29
29 -215 0 -215 0 -31 -25z"/>
<path d="M2130 3304 c-25 -2 -108 -8 -185 -14 -213 -17 -483 -49 -553 -67
-101 -25 -137 -67 -92 -108 19 -17 24 -17 113 -2 235 42 554 57 1197 57 625 0
983 -17 1187 -56 99 -19 126 -11 121 39 -6 62 -97 83 -588 133 -114 12 -287
17 -655 19 -275 1 -520 1 -545 -1z"/>
<path d="M1660 3060 c-101 -8 -163 -38 -201 -99 -24 -37 -37 -47 -72 -56 -40
-9 -42 -12 -45 -50 -4 -45 14 -65 59 -65 l27 0 6 -97 c6 -92 17 -168 32 -221
l7 -23 -79 8 c-44 4 -122 8 -174 8 -80 0 -95 -3 -98 -17 -4 -22 35 -33 178
-54 63 -9 125 -22 136 -29 23 -15 42 -81 27 -96 -4 -4 -64 -20 -133 -34 -140
-30 -173 -42 -178 -68 -4 -22 10 -22 190 -1 76 9 145 13 153 11 7 -3 21 -21
29 -39 31 -64 137 -187 216 -251 48 -38 128 -88 198 -122 64 -32 125 -62 135
-67 38 -19 267 -67 372 -79 115 -12 301 -7 415 11 367 60 675 245 812 487 39
69 46 74 93 63 87 -19 276 -33 288 -21 22 22 -19 41 -158 72 -77 17 -143 34
-147 38 -4 3 -2 27 3 54 8 36 16 48 32 52 57 12 138 24 195 30 76 7 114 23
110 44 -4 22 -91 26 -232 11 -60 -6 -110 -10 -111 -8 -2 2 3 30 10 63 8 33 17
108 21 167 l7 108 28 0 c15 0 35 7 43 16 37 37 3 104 -53 104 -25 0 -33 7 -51
45 -46 94 -95 106 -468 109 -338 2 -387 -2 -482 -44 -64 -28 -76 -30 -197 -30
-124 0 -132 1 -215 35 l-87 36 -283 2 c-156 1 -317 0 -358 -3z m668 -135 c47
-28 72 -73 72 -130 0 -114 -73 -297 -147 -367 -15 -15 -55 -39 -88 -54 -53
-25 -74 -29 -187 -32 -108 -4 -137 -1 -196 17 -84 25 -158 87 -192 158 -25 53
-37 192 -26 287 10 76 52 126 117 137 24 4 172 7 329 6 266 -2 287 -3 318 -22z
m1248 -1 c61 -45 69 -66 72 -194 4 -148 -10 -207 -68 -273 -79 -89 -155 -117
-320 -117 -248 0 -356 80 -426 313 -34 114 -32 182 6 235 28 39 39 45 100 56
14 2 156 3 317 3 278 -2 293 -3 319 -23z m-912 -176 c16 -16 32 -49 47 -103
75 -277 252 -422 519 -426 l75 -1 -35 -16 c-48 -23 -215 -22 -292 2 -67 20
-160 79 -206 129 -41 46 -56 50 -189 45 l-109 -3 -55 -56 c-84 -87 -173 -125
-314 -136 -63 -4 -94 -2 -140 13 l-60 18 95 7 c52 3 115 12 140 19 117 32 226
119 286 227 33 58 84 198 84 230 0 8 13 28 29 44 37 37 88 39 125 7z m39 -427
c33 -13 42 -43 23 -79 -17 -34 -76 -87 -105 -97 -28 -9 -73 17 -115 67 -43 50
-45 86 -6 105 29 15 168 17 203 4z"/>
<path d="M1784 1644 c-38 -91 -29 -117 78 -220 119 -116 300 -274 314 -274 16
0 284 306 284 326 0 10 -13 14 -49 14 -117 0 -360 69 -513 146 -48 24 -90 44
-93 44 -3 0 -13 -16 -21 -36z"/>
<path d="M3325 1641 c-137 -73 -401 -151 -516 -151 -26 0 -51 -5 -54 -10 -6
-9 117 -163 227 -285 l45 -49 29 19 c45 29 273 235 332 299 46 51 52 62 52
102 0 45 -22 114 -37 114 -4 0 -40 -18 -78 -39z"/>
<path d="M2455 1250 c-7 -21 14 -69 39 -89 9 -8 16 -19 16 -25 0 -6 -27 -82
-60 -169 -39 -102 -58 -166 -54 -181 5 -21 112 -118 176 -160 35 -23 53 -16
124 45 101 86 124 109 124 124 0 8 -28 89 -61 179 l-62 165 32 36 c17 20 31
44 31 53 0 37 -20 42 -161 42 -128 0 -138 -1 -144 -20z"/>
</g>
</svg>
